<?xml version="1.0" encoding="utf-8" standalone="no"?>
<!DOCTYPE svg PUBLIC "-//W3C//DTD SVG 1.1//EN"
  "http://www.w3.org/Graphics/SVG/1.1/DTD/svg11.dtd">
<!-- Created with matplotlib (http://matplotlib.org/) -->
<svg height="432pt" version="1.1" viewBox="0 0 1080 432" width="1080pt" xmlns="http://www.w3.org/2000/svg" xmlns:xlink="http://www.w3.org/1999/xlink">
 <defs>
  <style type="text/css">
*{stroke-linecap:butt;stroke-linejoin:round;}
  </style>
 </defs>
 <g id="figure_1">
  <g id="patch_1">
   <path d="M 0 432 
L 1080 432 
L 1080 0 
L 0 0 
z
" style="fill:#ffffff;"/>
  </g>
  <g id="axes_1">
   <g id="patch_2">
    <path d="M 135 378 
L 972 378 
L 972 51.84 
L 135 51.84 
z
" style="fill:#e6e6e6;"/>
   </g>
   <g id="matplotlib.axis_1">
    <g id="xtick_1">
     <g id="text_1">
      <!-- 1 -->
      <defs>
       <path d="M 12.40625 8.296875 
L 28.515625 8.296875 
L 28.515625 63.921875 
L 10.984375 60.40625 
L 10.984375 69.390625 
L 28.421875 72.90625 
L 38.28125 72.90625 
L 38.28125 8.296875 
L 54.390625 8.296875 
L 54.390625 0 
L 12.40625 0 
z
" id="DejaVuSans-31"/>
      </defs>
      <g style="fill:#262626;" transform="translate(215.51875 392.598437)scale(0.1 -0.1)">
       <use xlink:href="#DejaVuSans-31"/>
      </g>
     </g>
    </g>
    <g id="xtick_2">
     <g id="text_2">
      <!-- 2 -->
      <defs>
       <path d="M 19.1875 8.296875 
L 53.609375 8.296875 
L 53.609375 0 
L 7.328125 0 
L 7.328125 8.296875 
Q 12.9375 14.109375 22.625 23.890625 
Q 32.328125 33.6875 34.8125 36.53125 
Q 39.546875 41.84375 41.421875 45.53125 
Q 43.3125 49.21875 43.3125 52.78125 
Q 43.3125 58.59375 39.234375 62.25 
Q 35.15625 65.921875 28.609375 65.921875 
Q 23.96875 65.921875 18.8125 64.3125 
Q 13.671875 62.703125 7.8125 59.421875 
L 7.8125 69.390625 
Q 13.765625 71.78125 18.9375 73 
Q 24.125 74.21875 28.421875 74.21875 
Q 39.75 74.21875 46.484375 68.546875 
Q 53.21875 62.890625 53.21875 53.421875 
Q 53.21875 48.921875 51.53125 44.890625 
Q 49.859375 40.875 45.40625 35.40625 
Q 44.1875 33.984375 37.640625 27.21875 
Q 31.109375 20.453125 19.1875 8.296875 
z
" id="DejaVuSans-32"/>
      </defs>
      <g style="fill:#262626;" transform="translate(382.91875 392.598437)scale(0.1 -0.1)">
       <use xlink:href="#DejaVuSans-32"/>
      </g>
     </g>
    </g>
    <g id="xtick_3">
     <g id="text_3">
      <!-- 3 -->
      <defs>
       <path d="M 40.578125 39.3125 
Q 47.65625 37.796875 51.625 33 
Q 55.609375 28.21875 55.609375 21.1875 
Q 55.609375 10.40625 48.1875 4.484375 
Q 40.765625 -1.421875 27.09375 -1.421875 
Q 22.515625 -1.421875 17.65625 -0.515625 
Q 12.796875 0.390625 7.625 2.203125 
L 7.625 11.71875 
Q 11.71875 9.328125 16.59375 8.109375 
Q 21.484375 6.890625 26.8125 6.890625 
Q 36.078125 6.890625 40.9375 10.546875 
Q 45.796875 14.203125 45.796875 21.1875 
Q 45.796875 27.640625 41.28125 31.265625 
Q 36.765625 34.90625 28.71875 34.90625 
L 20.21875 34.90625 
L 20.21875 43.015625 
L 29.109375 43.015625 
Q 36.375 43.015625 40.234375 45.921875 
Q 44.09375 48.828125 44.09375 54.296875 
Q 44.09375 59.90625 40.109375 62.90625 
Q 36.140625 65.921875 28.71875 65.921875 
Q 24.65625 65.921875 20.015625 65.03125 
Q 15.375 64.15625 9.8125 62.3125 
L 9.8125 71.09375 
Q 15.4375 72.65625 20.34375 73.4375 
Q 25.25 74.21875 29.59375 74.21875 
Q 40.828125 74.21875 47.359375 69.109375 
Q 53.90625 64.015625 53.90625 55.328125 
Q 53.90625 49.265625 50.4375 45.09375 
Q 46.96875 40.921875 40.578125 39.3125 
z
" id="DejaVuSans-33"/>
      </defs>
      <g style="fill:#262626;" transform="translate(550.31875 392.598437)scale(0.1 -0.1)">
       <use xlink:href="#DejaVuSans-33"/>
      </g>
     </g>
    </g>
    <g id="xtick_4">
     <g id="text_4">
      <!-- 4 -->
      <defs>
       <path d="M 37.796875 64.3125 
L 12.890625 25.390625 
L 37.796875 25.390625 
z
M 35.203125 72.90625 
L 47.609375 72.90625 
L 47.609375 25.390625 
L 58.015625 25.390625 
L 58.015625 17.1875 
L 47.609375 17.1875 
L 47.609375 0 
L 37.796875 0 
L 37.796875 17.1875 
L 4.890625 17.1875 
L 4.890625 26.703125 
z
" id="DejaVuSans-34"/>
      </defs>
      <g style="fill:#262626;" transform="translate(717.71875 392.598437)scale(0.1 -0.1)">
       <use xlink:href="#DejaVuSans-34"/>
      </g>
     </g>
    </g>
    <g id="xtick_5">
     <g id="text_5">
      <!-- 5 -->
      <defs>
       <path d="M 10.796875 72.90625 
L 49.515625 72.90625 
L 49.515625 64.59375 
L 19.828125 64.59375 
L 19.828125 46.734375 
Q 21.96875 47.46875 24.109375 47.828125 
Q 26.265625 48.1875 28.421875 48.1875 
Q 40.625 48.1875 47.75 41.5 
Q 54.890625 34.8125 54.890625 23.390625 
Q 54.890625 11.625 47.5625 5.09375 
Q 40.234375 -1.421875 26.90625 -1.421875 
Q 22.3125 -1.421875 17.546875 -0.640625 
Q 12.796875 0.140625 7.71875 1.703125 
L 7.71875 11.625 
Q 12.109375 9.234375 16.796875 8.0625 
Q 21.484375 6.890625 26.703125 6.890625 
Q 35.15625 6.890625 40.078125 11.328125 
Q 45.015625 15.765625 45.015625 23.390625 
Q 45.015625 31 40.078125 35.4375 
Q 35.15625 39.890625 26.703125 39.890625 
Q 22.75 39.890625 18.8125 39.015625 
Q 14.890625 38.140625 10.796875 36.28125 
z
" id="DejaVuSans-35"/>
      </defs>
      <g style="fill:#262626;" transform="translate(885.11875 392.598437)scale(0.1 -0.1)">
       <use xlink:href="#DejaVuSans-35"/>
      </g>
     </g>
    </g>
    <g id="text_6">
     <!-- feature_1 -->
     <defs>
      <path d="M 37.109375 75.984375 
L 37.109375 68.5 
L 28.515625 68.5 
Q 23.6875 68.5 21.796875 66.546875 
Q 19.921875 64.59375 19.921875 59.515625 
L 19.921875 54.6875 
L 34.71875 54.6875 
L 34.71875 47.703125 
L 19.921875 47.703125 
L 19.921875 0 
L 10.890625 0 
L 10.890625 47.703125 
L 2.296875 47.703125 
L 2.296875 54.6875 
L 10.890625 54.6875 
L 10.890625 58.5 
Q 10.890625 67.625 15.140625 71.796875 
Q 19.390625 75.984375 28.609375 75.984375 
z
" id="DejaVuSans-66"/>
      <path d="M 56.203125 29.59375 
L 56.203125 25.203125 
L 14.890625 25.203125 
Q 15.484375 15.921875 20.484375 11.0625 
Q 25.484375 6.203125 34.421875 6.203125 
Q 39.59375 6.203125 44.453125 7.46875 
Q 49.3125 8.734375 54.109375 11.28125 
L 54.109375 2.78125 
Q 49.265625 0.734375 44.1875 -0.34375 
Q 39.109375 -1.421875 33.890625 -1.421875 
Q 20.796875 -1.421875 13.15625 6.1875 
Q 5.515625 13.8125 5.515625 26.8125 
Q 5.515625 40.234375 12.765625 48.109375 
Q 20.015625 56 32.328125 56 
Q 43.359375 56 49.78125 48.890625 
Q 56.203125 41.796875 56.203125 29.59375 
z
M 47.21875 32.234375 
Q 47.125 39.59375 43.09375 43.984375 
Q 39.0625 48.390625 32.421875 48.390625 
Q 24.90625 48.390625 20.390625 44.140625 
Q 15.875 39.890625 15.1875 32.171875 
z
" id="DejaVuSans-65"/>
      <path d="M 34.28125 27.484375 
Q 23.390625 27.484375 19.1875 25 
Q 14.984375 22.515625 14.984375 16.5 
Q 14.984375 11.71875 18.140625 8.90625 
Q 21.296875 6.109375 26.703125 6.109375 
Q 34.1875 6.109375 38.703125 11.40625 
Q 43.21875 16.703125 43.21875 25.484375 
L 43.21875 27.484375 
z
M 52.203125 31.203125 
L 52.203125 0 
L 43.21875 0 
L 43.21875 8.296875 
Q 40.140625 3.328125 35.546875 0.953125 
Q 30.953125 -1.421875 24.3125 -1.421875 
Q 15.921875 -1.421875 10.953125 3.296875 
Q 6 8.015625 6 15.921875 
Q 6 25.140625 12.171875 29.828125 
Q 18.359375 34.515625 30.609375 34.515625 
L 43.21875 34.515625 
L 43.21875 35.40625 
Q 43.21875 41.609375 39.140625 45 
Q 35.0625 48.390625 27.6875 48.390625 
Q 23 48.390625 18.546875 47.265625 
Q 14.109375 46.140625 10.015625 43.890625 
L 10.015625 52.203125 
Q 14.9375 54.109375 19.578125 55.046875 
Q 24.21875 56 28.609375 56 
Q 40.484375 56 46.34375 49.84375 
Q 52.203125 43.703125 52.203125 31.203125 
z
" id="DejaVuSans-61"/>
      <path d="M 18.3125 70.21875 
L 18.3125 54.6875 
L 36.8125 54.6875 
L 36.8125 47.703125 
L 18.3125 47.703125 
L 18.3125 18.015625 
Q 18.3125 11.328125 20.140625 9.421875 
Q 21.96875 7.515625 27.59375 7.515625 
L 36.8125 7.515625 
L 36.8125 0 
L 27.59375 0 
Q 17.1875 0 13.234375 3.875 
Q 9.28125 7.765625 9.28125 18.015625 
L 9.28125 47.703125 
L 2.6875 47.703125 
L 2.6875 54.6875 
L 9.28125 54.6875 
L 9.28125 70.21875 
z
" id="DejaVuSans-74"/>
      <path d="M 8.5 21.578125 
L 8.5 54.6875 
L 17.484375 54.6875 
L 17.484375 21.921875 
Q 17.484375 14.15625 20.5 10.265625 
Q 23.53125 6.390625 29.59375 6.390625 
Q 36.859375 6.390625 41.078125 11.03125 
Q 45.3125 15.671875 45.3125 23.6875 
L 45.3125 54.6875 
L 54.296875 54.6875 
L 54.296875 0 
L 45.3125 0 
L 45.3125 8.40625 
Q 42.046875 3.421875 37.71875 1 
Q 33.40625 -1.421875 27.6875 -1.421875 
Q 18.265625 -1.421875 13.375 4.4375 
Q 8.5 10.296875 8.5 21.578125 
z
M 31.109375 56 
z
" id="DejaVuSans-75"/>
      <path d="M 41.109375 46.296875 
Q 39.59375 47.171875 37.8125 47.578125 
Q 36.03125 48 33.890625 48 
Q 26.265625 48 22.1875 43.046875 
Q 18.109375 38.09375 18.109375 28.8125 
L 18.109375 0 
L 9.078125 0 
L 9.078125 54.6875 
L 18.109375 54.6875 
L 18.109375 46.1875 
Q 20.953125 51.171875 25.484375 53.578125 
Q 30.03125 56 36.53125 56 
Q 37.453125 56 38.578125 55.875 
Q 39.703125 55.765625 41.0625 55.515625 
z
" id="DejaVuSans-72"/>
      <path d="M 50.984375 -16.609375 
L 50.984375 -23.578125 
L -0.984375 -23.578125 
L -0.984375 -16.609375 
z
" id="DejaVuSans-5f"/>
     </defs>
     <g style="fill:#262626;" transform="translate(529.658594 406.276563)scale(0.1 -0.1)">
      <use xlink:href="#DejaVuSans-66"/>
      <use x="35.205078" xlink:href="#DejaVuSans-65"/>
      <use x="96.728516" xlink:href="#DejaVuSans-61"/>
      <use x="158.007812" xlink:href="#DejaVuSans-74"/>
      <use x="197.216797" xlink:href="#DejaVuSans-75"/>
      <use x="260.595703" xlink:href="#DejaVuSans-72"/>
      <use x="301.677734" xlink:href="#DejaVuSans-65"/>
      <use x="363.201172" xlink:href="#DejaVuSans-5f"/>
      <use x="413.201172" xlink:href="#DejaVuSans-31"/>
     </g>
    </g>
   </g>
   <g id="matplotlib.axis_2">
    <g id="ytick_1">
     <g id="line2d_1">
      <path clip-path="url(#p2e39d2ec22)" d="M 135 339.366366 
L 972 339.366366 
" style="fill:none;stroke:#ffffff;stroke-linecap:round;stroke-width:0.8;"/>
     </g>
     <g id="text_7">
      <!-- −30 -->
      <defs>
       <path d="M 10.59375 35.5 
L 73.1875 35.5 
L 73.1875 27.203125 
L 10.59375 27.203125 
z
" id="DejaVuSans-2212"/>
       <path d="M 31.78125 66.40625 
Q 24.171875 66.40625 20.328125 58.90625 
Q 16.5 51.421875 16.5 36.375 
Q 16.5 21.390625 20.328125 13.890625 
Q 24.171875 6.390625 31.78125 6.390625 
Q 39.453125 6.390625 43.28125 13.890625 
Q 47.125 21.390625 47.125 36.375 
Q 47.125 51.421875 43.28125 58.90625 
Q 39.453125 66.40625 31.78125 66.40625 
z
M 31.78125 74.21875 
Q 44.046875 74.21875 50.515625 64.515625 
Q 56.984375 54.828125 56.984375 36.375 
Q 56.984375 17.96875 50.515625 8.265625 
Q 44.046875 -1.421875 31.78125 -1.421875 
Q 19.53125 -1.421875 13.0625 8.265625 
Q 6.59375 17.96875 6.59375 36.375 
Q 6.59375 54.828125 13.0625 64.515625 
Q 19.53125 74.21875 31.78125 74.21875 
z
" id="DejaVuSans-30"/>
      </defs>
      <g style="fill:#262626;" transform="translate(106.895313 343.165585)scale(0.1 -0.1)">
       <use xlink:href="#DejaVuSans-2212"/>
       <use x="83.789062" xlink:href="#DejaVuSans-33"/>
       <use x="147.412109" xlink:href="#DejaVuSans-30"/>
      </g>
     </g>
    </g>
    <g id="ytick_2">
     <g id="line2d_2">
      <path clip-path="url(#p2e39d2ec22)" d="M 135 283.662284 
L 972 283.662284 
" style="fill:none;stroke:#ffffff;stroke-linecap:round;stroke-width:0.8;"/>
     </g>
     <g id="text_8">
      <!-- −20 -->
      <g style="fill:#262626;" transform="translate(106.895313 287.461503)scale(0.1 -0.1)">
       <use xlink:href="#DejaVuSans-2212"/>
       <use x="83.789062" xlink:href="#DejaVuSans-32"/>
       <use x="147.412109" xlink:href="#DejaVuSans-30"/>
      </g>
     </g>
    </g>
    <g id="ytick_3">
     <g id="line2d_3">
      <path clip-path="url(#p2e39d2ec22)" d="M 135 227.958201 
L 972 227.958201 
" style="fill:none;stroke:#ffffff;stroke-linecap:round;stroke-width:0.8;"/>
     </g>
     <g id="text_9">
      <!-- −10 -->
      <g style="fill:#262626;" transform="translate(106.895313 231.75742)scale(0.1 -0.1)">
       <use xlink:href="#DejaVuSans-2212"/>
       <use x="83.789062" xlink:href="#DejaVuSans-31"/>
       <use x="147.412109" xlink:href="#DejaVuSans-30"/>
      </g>
     </g>
    </g>
    <g id="ytick_4">
     <g id="line2d_4">
      <path clip-path="url(#p2e39d2ec22)" d="M 135 172.254119 
L 972 172.254119 
" style="fill:none;stroke:#ffffff;stroke-linecap:round;stroke-width:0.8;"/>
     </g>
     <g id="text_10">
      <!-- 0 -->
      <g style="fill:#262626;" transform="translate(121.6375 176.053337)scale(0.1 -0.1)">
       <use xlink:href="#DejaVuSans-30"/>
      </g>
     </g>
    </g>
    <g id="ytick_5">
     <g id="line2d_5">
      <path clip-path="url(#p2e39d2ec22)" d="M 135 116.550036 
L 972 116.550036 
" style="fill:none;stroke:#ffffff;stroke-linecap:round;stroke-width:0.8;"/>
     </g>
     <g id="text_11">
      <!-- 10 -->
      <g style="fill:#262626;" transform="translate(115.275 120.349255)scale(0.1 -0.1)">
       <use xlink:href="#DejaVuSans-31"/>
       <use x="63.623047" xlink:href="#DejaVuSans-30"/>
      </g>
     </g>
    </g>
    <g id="ytick_6">
     <g id="line2d_6">
      <path clip-path="url(#p2e39d2ec22)" d="M 135 60.845953 
L 972 60.845953 
" style="fill:none;stroke:#ffffff;stroke-linecap:round;stroke-width:0.8;"/>
     </g>
     <g id="text_12">
      <!-- 20 -->
      <g style="fill:#262626;" transform="translate(115.275 64.645172)scale(0.1 -0.1)">
       <use xlink:href="#DejaVuSans-32"/>
       <use x="63.623047" xlink:href="#DejaVuSans-30"/>
      </g>
     </g>
    </g>
    <g id="text_13">
     <!-- target -->
     <defs>
      <path d="M 45.40625 27.984375 
Q 45.40625 37.75 41.375 43.109375 
Q 37.359375 48.484375 30.078125 48.484375 
Q 22.859375 48.484375 18.828125 43.109375 
Q 14.796875 37.75 14.796875 27.984375 
Q 14.796875 18.265625 18.828125 12.890625 
Q 22.859375 7.515625 30.078125 7.515625 
Q 37.359375 7.515625 41.375 12.890625 
Q 45.40625 18.265625 45.40625 27.984375 
z
M 54.390625 6.78125 
Q 54.390625 -7.171875 48.1875 -13.984375 
Q 42 -20.796875 29.203125 -20.796875 
Q 24.46875 -20.796875 20.265625 -20.09375 
Q 16.0625 -19.390625 12.109375 -17.921875 
L 12.109375 -9.1875 
Q 16.0625 -11.328125 19.921875 -12.34375 
Q 23.78125 -13.375 27.78125 -13.375 
Q 36.625 -13.375 41.015625 -8.765625 
Q 45.40625 -4.15625 45.40625 5.171875 
L 45.40625 9.625 
Q 42.625 4.78125 38.28125 2.390625 
Q 33.9375 0 27.875 0 
Q 17.828125 0 11.671875 7.65625 
Q 5.515625 15.328125 5.515625 27.984375 
Q 5.515625 40.671875 11.671875 48.328125 
Q 17.828125 56 27.875 56 
Q 33.9375 56 38.28125 53.609375 
Q 42.625 51.21875 45.40625 46.390625 
L 45.40625 54.6875 
L 54.390625 54.6875 
z
" id="DejaVuSans-67"/>
     </defs>
     <g style="fill:#262626;" transform="translate(100.815625 230.209844)rotate(-90)scale(0.1 -0.1)">
      <use xlink:href="#DejaVuSans-74"/>
      <use x="39.208984" xlink:href="#DejaVuSans-61"/>
      <use x="100.488281" xlink:href="#DejaVuSans-72"/>
      <use x="141.585938" xlink:href="#DejaVuSans-67"/>
      <use x="205.0625" xlink:href="#DejaVuSans-65"/>
      <use x="266.585938" xlink:href="#DejaVuSans-74"/>
     </g>
    </g>
   </g>
   <g id="PolyCollection_1">
    <defs>
     <path d="M 218.872634 -68.903982 
L 218.527366 -68.903982 
L 217.944343 -71.734873 
L 217.425781 -74.565764 
L 217.872279 -77.396656 
L 218.492869 -80.227547 
L 218.680032 -83.058438 
L 218.699258 -85.889329 
L 218.699989 -88.720221 
L 218.7 -91.551112 
L 218.7 -94.382003 
L 218.7 -97.212894 
L 218.7 -100.043786 
L 218.7 -102.874677 
L 218.7 -105.705568 
L 218.7 -108.53646 
L 218.7 -111.367351 
L 218.7 -114.198242 
L 218.7 -117.029133 
L 218.7 -119.860025 
L 218.7 -122.690916 
L 218.7 -125.521807 
L 218.7 -128.352699 
L 218.7 -131.18359 
L 218.7 -134.014481 
L 218.7 -136.845372 
L 218.7 -139.676264 
L 218.7 -142.507155 
L 218.7 -145.338046 
L 218.7 -148.168938 
L 218.699988 -150.999829 
L 218.699652 -153.83072 
L 218.69586 -156.661611 
L 218.680409 -159.492503 
L 218.662612 -162.323394 
L 218.670869 -165.154285 
L 218.690655 -167.985177 
L 218.698633 -170.816068 
L 218.698129 -173.646959 
L 218.690064 -176.47785 
L 218.67697 -179.308742 
L 218.675364 -182.139633 
L 218.681633 -184.970524 
L 218.684549 -187.801416 
L 218.685297 -190.632307 
L 218.672285 -193.463198 
L 218.662168 -196.294089 
L 218.675691 -199.124981 
L 218.683981 -201.955872 
L 218.673701 -204.786763 
L 218.662033 -207.617654 
L 218.632513 -210.448546 
L 218.594654 -213.279437 
L 218.57222 -216.110328 
L 218.519989 -218.94122 
L 218.400024 -221.772111 
L 218.178624 -224.603002 
L 217.832319 -227.433893 
L 217.412487 -230.264785 
L 216.989983 -233.095676 
L 216.472124 -235.926567 
L 215.328809 -238.757459 
L 213.358059 -241.58835 
L 210.621445 -244.419241 
L 205.924463 -247.250132 
L 197.4634 -250.081024 
L 184.012049 -252.911915 
L 166.215928 -255.742806 
L 151.74 -258.573698 
L 153.820502 -261.404589 
L 170.956913 -264.23548 
L 189.190093 -267.066371 
L 201.592322 -269.897263 
L 208.605948 -272.728154 
L 212.33349 -275.559045 
L 214.417659 -278.389937 
L 215.750944 -281.220828 
L 216.618793 -284.051719 
L 217.199567 -286.88261 
L 217.639138 -289.713502 
L 217.914522 -292.544393 
L 218.090783 -295.375284 
L 218.273381 -298.206175 
L 218.450202 -301.037067 
L 218.550659 -303.867958 
L 218.592437 -306.698849 
L 218.621662 -309.529741 
L 218.639541 -312.360632 
L 218.653851 -315.191523 
L 218.659372 -318.022414 
L 218.663909 -320.853306 
L 218.675481 -323.684197 
L 218.688647 -326.515088 
L 218.695942 -329.34598 
L 218.692945 -332.176871 
L 218.686833 -335.007762 
L 218.688324 -337.838653 
L 218.688759 -340.669545 
L 218.686568 -343.500436 
L 218.692197 -346.331327 
L 218.69822 -349.162219 
L 218.70178 -349.162219 
L 218.70178 -349.162219 
L 218.707803 -346.331327 
L 218.713432 -343.500436 
L 218.711241 -340.669545 
L 218.711676 -337.838653 
L 218.713167 -335.007762 
L 218.707055 -332.176871 
L 218.704058 -329.34598 
L 218.711353 -326.515088 
L 218.724519 -323.684197 
L 218.736091 -320.853306 
L 218.740628 -318.022414 
L 218.746149 -315.191523 
L 218.760459 -312.360632 
L 218.778338 -309.529741 
L 218.807563 -306.698849 
L 218.849341 -303.867958 
L 218.949798 -301.037067 
L 219.126619 -298.206175 
L 219.309217 -295.375284 
L 219.485478 -292.544393 
L 219.760862 -289.713502 
L 220.200433 -286.88261 
L 220.781207 -284.051719 
L 221.649056 -281.220828 
L 222.982341 -278.389937 
L 225.06651 -275.559045 
L 228.794052 -272.728154 
L 235.807678 -269.897263 
L 248.209907 -267.066371 
L 266.443087 -264.23548 
L 283.579498 -261.404589 
L 285.66 -258.573698 
L 271.184072 -255.742806 
L 253.387951 -252.911915 
L 239.9366 -250.081024 
L 231.475537 -247.250132 
L 226.778555 -244.419241 
L 224.041941 -241.58835 
L 222.071191 -238.757459 
L 220.927876 -235.926567 
L 220.410017 -233.095676 
L 219.987513 -230.264785 
L 219.567681 -227.433893 
L 219.221376 -224.603002 
L 218.999976 -221.772111 
L 218.880011 -218.94122 
L 218.82778 -216.110328 
L 218.805346 -213.279437 
L 218.767487 -210.448546 
L 218.737967 -207.617654 
L 218.726299 -204.786763 
L 218.716019 -201.955872 
L 218.724309 -199.124981 
L 218.737832 -196.294089 
L 218.727715 -193.463198 
L 218.714703 -190.632307 
L 218.715451 -187.801416 
L 218.718367 -184.970524 
L 218.724636 -182.139633 
L 218.72303 -179.308742 
L 218.709936 -176.47785 
L 218.701871 -173.646959 
L 218.701367 -170.816068 
L 218.709345 -167.985177 
L 218.729131 -165.154285 
L 218.737388 -162.323394 
L 218.719591 -159.492503 
L 218.70414 -156.661611 
L 218.700348 -153.83072 
L 218.700012 -150.999829 
L 218.7 -148.168938 
L 218.7 -145.338046 
L 218.7 -142.507155 
L 218.7 -139.676264 
L 218.7 -136.845372 
L 218.7 -134.014481 
L 218.7 -131.18359 
L 218.7 -128.352699 
L 218.7 -125.521807 
L 218.7 -122.690916 
L 218.7 -119.860025 
L 218.7 -117.029133 
L 218.7 -114.198242 
L 218.7 -111.367351 
L 218.7 -108.53646 
L 218.7 -105.705568 
L 218.7 -102.874677 
L 218.7 -100.043786 
L 218.7 -97.212894 
L 218.7 -94.382003 
L 218.7 -91.551112 
L 218.700011 -88.720221 
L 218.700742 -85.889329 
L 218.719968 -83.058438 
L 218.907131 -80.227547 
L 219.527721 -77.396656 
L 219.974219 -74.565764 
L 219.455657 -71.734873 
L 218.872634 -68.903982 
z
" id="md59241e676" style="stroke:#4d4d4d;stroke-width:1.5;"/>
    </defs>
    <g clip-path="url(#p2e39d2ec22)">
     <use style="fill:#224fdf;stroke:#4d4d4d;stroke-width:1.5;" x="0" xlink:href="#md59241e676" y="432"/>
    </g>
   </g>
   <g id="PolyCollection_2">
    <defs>
     <path d="M 386.380194 -69.998475 
L 385.819806 -69.998475 
L 384.644328 -72.727405 
L 384.133773 -75.456335 
L 385.409489 -78.185265 
L 386.036952 -80.914196 
L 386.098503 -83.643126 
L 386.099991 -86.372056 
L 386.1 -89.100986 
L 386.1 -91.829916 
L 386.1 -94.558847 
L 386.1 -97.287777 
L 386.1 -100.016707 
L 386.1 -102.745637 
L 386.1 -105.474567 
L 386.1 -108.203498 
L 386.1 -110.932428 
L 386.1 -113.661358 
L 386.1 -116.390288 
L 386.1 -119.119218 
L 386.1 -121.848149 
L 386.1 -124.577079 
L 386.1 -127.306009 
L 386.1 -130.034939 
L 386.1 -132.763869 
L 386.1 -135.4928 
L 386.1 -138.22173 
L 386.1 -140.95066 
L 386.1 -143.67959 
L 386.1 -146.40852 
L 386.1 -149.137451 
L 386.1 -151.866381 
L 386.1 -154.595311 
L 386.1 -157.324241 
L 386.1 -160.053171 
L 386.099997 -162.782102 
L 386.099869 -165.511032 
L 386.09869 -168.239962 
L 386.096603 -170.968892 
L 386.097709 -173.697822 
L 386.099598 -176.426753 
L 386.099982 -179.155683 
L 386.099998 -181.884613 
L 386.09993 -184.613543 
L 386.099027 -187.342473 
L 386.095904 -190.071404 
L 386.092485 -192.800334 
L 386.09029 -195.529264 
L 386.091148 -198.258194 
L 386.085878 -200.987124 
L 386.069979 -203.716055 
L 386.057521 -206.444985 
L 386.048582 -209.173915 
L 386.039711 -211.902845 
L 386.023685 -214.631775 
L 385.993015 -217.360706 
L 385.927178 -220.089636 
L 385.802286 -222.818566 
L 385.613942 -225.547496 
L 385.324448 -228.276426 
L 384.959608 -231.005357 
L 384.462115 -233.734287 
L 383.727795 -236.463217 
L 382.579106 -239.192147 
L 380.804094 -241.921077 
L 378.034311 -244.650008 
L 373.469693 -247.378938 
L 365.589611 -250.107868 
L 353.322506 -252.836798 
L 336.744447 -255.565728 
L 320.888129 -258.294659 
L 319.284321 -261.023589 
L 333.967108 -263.752519 
L 351.734338 -266.481449 
L 365.030245 -269.210379 
L 373.038833 -271.93931 
L 377.636238 -274.66824 
L 380.49127 -277.39717 
L 382.326118 -280.1261 
L 383.70819 -282.85503 
L 384.561321 -285.583961 
L 385.043931 -288.312891 
L 385.385942 -291.041821 
L 385.62243 -293.770751 
L 385.786612 -296.499681 
L 385.89977 -299.228612 
L 385.986152 -301.957542 
L 386.044388 -304.686472 
L 386.067487 -307.415402 
L 386.074424 -310.144332 
L 386.082442 -312.873263 
L 386.087204 -315.602193 
L 386.090146 -318.331123 
L 386.092976 -321.060053 
L 386.090825 -323.788983 
L 386.093211 -326.517914 
L 386.097672 -329.246844 
L 386.096369 -331.975774 
L 386.093286 -334.704704 
L 386.096249 -337.433634 
L 386.099399 -340.162565 
L 386.100601 -340.162565 
L 386.100601 -340.162565 
L 386.103751 -337.433634 
L 386.106714 -334.704704 
L 386.103631 -331.975774 
L 386.102328 -329.246844 
L 386.106789 -326.517914 
L 386.109175 -323.788983 
L 386.107024 -321.060053 
L 386.109854 -318.331123 
L 386.112796 -315.602193 
L 386.117558 -312.873263 
L 386.125576 -310.144332 
L 386.132513 -307.415402 
L 386.155612 -304.686472 
L 386.213848 -301.957542 
L 386.30023 -299.228612 
L 386.413388 -296.499681 
L 386.57757 -293.770751 
L 386.814058 -291.041821 
L 387.156069 -288.312891 
L 387.638679 -285.583961 
L 388.49181 -282.85503 
L 389.873882 -280.1261 
L 391.70873 -277.39717 
L 394.563762 -274.66824 
L 399.161167 -271.93931 
L 407.169755 -269.210379 
L 420.465662 -266.481449 
L 438.232892 -263.752519 
L 452.915679 -261.023589 
L 451.311871 -258.294659 
L 435.455553 -255.565728 
L 418.877494 -252.836798 
L 406.610389 -250.107868 
L 398.730307 -247.378938 
L 394.165689 -244.650008 
L 391.395906 -241.921077 
L 389.620894 -239.192147 
L 388.472205 -236.463217 
L 387.737885 -233.734287 
L 387.240392 -231.005357 
L 386.875552 -228.276426 
L 386.586058 -225.547496 
L 386.397714 -222.818566 
L 386.272822 -220.089636 
L 386.206985 -217.360706 
L 386.176315 -214.631775 
L 386.160289 -211.902845 
L 386.151418 -209.173915 
L 386.142479 -206.444985 
L 386.130021 -203.716055 
L 386.114122 -200.987124 
L 386.108852 -198.258194 
L 386.10971 -195.529264 
L 386.107515 -192.800334 
L 386.104096 -190.071404 
L 386.100973 -187.342473 
L 386.10007 -184.613543 
L 386.100002 -181.884613 
L 386.100018 -179.155683 
L 386.100402 -176.426753 
L 386.102291 -173.697822 
L 386.103397 -170.968892 
L 386.10131 -168.239962 
L 386.100131 -165.511032 
L 386.100003 -162.782102 
L 386.1 -160.053171 
L 386.1 -157.324241 
L 386.1 -154.595311 
L 386.1 -151.866381 
L 386.1 -149.137451 
L 386.1 -146.40852 
L 386.1 -143.67959 
L 386.1 -140.95066 
L 386.1 -138.22173 
L 386.1 -135.4928 
L 386.1 -132.763869 
L 386.1 -130.034939 
L 386.1 -127.306009 
L 386.1 -124.577079 
L 386.1 -121.848149 
L 386.1 -119.119218 
L 386.1 -116.390288 
L 386.1 -113.661358 
L 386.1 -110.932428 
L 386.1 -108.203498 
L 386.1 -105.474567 
L 386.1 -102.745637 
L 386.1 -100.016707 
L 386.1 -97.287777 
L 386.1 -94.558847 
L 386.1 -91.829916 
L 386.1 -89.100986 
L 386.100009 -86.372056 
L 386.101497 -83.643126 
L 386.163048 -80.914196 
L 386.790511 -78.185265 
L 388.066227 -75.456335 
L 387.555672 -72.727405 
L 386.380194 -69.998475 
z
" id="m98de4d9dd3" style="stroke:#4d4d4d;stroke-width:1.5;"/>
    </defs>
    <g clip-path="url(#p2e39d2ec22)">
     <use style="fill:#224fdf;stroke:#4d4d4d;stroke-width:1.5;" x="0" xlink:href="#m98de4d9dd3" y="432"/>
    </g>
   </g>
   <g id="PolyCollection_3">
    <defs>
     <path d="M 553.786501 -70.15856 
L 553.213499 -70.15856 
L 551.901997 -72.997588 
L 551.631818 -75.836615 
L 553.042225 -78.675643 
L 553.476489 -81.514671 
L 553.499747 -84.353698 
L 553.499999 -87.192726 
L 553.5 -90.031754 
L 553.5 -92.870781 
L 553.5 -95.709809 
L 553.5 -98.548836 
L 553.5 -101.387864 
L 553.5 -104.226892 
L 553.5 -107.065919 
L 553.5 -109.904947 
L 553.5 -112.743974 
L 553.5 -115.583002 
L 553.5 -118.42203 
L 553.5 -121.261057 
L 553.5 -124.100085 
L 553.5 -126.939113 
L 553.5 -129.77814 
L 553.5 -132.617168 
L 553.5 -135.456195 
L 553.5 -138.295223 
L 553.5 -141.134251 
L 553.5 -143.973278 
L 553.5 -146.812306 
L 553.5 -149.651333 
L 553.499999 -152.490361 
L 553.499944 -155.329389 
L 553.499158 -158.168416 
L 553.497366 -161.007444 
L 553.498271 -163.846472 
L 553.499686 -166.685499 
L 553.49838 -169.524527 
L 553.490936 -172.363554 
L 553.484918 -175.202582 
L 553.490024 -178.04161 
L 553.492418 -180.880637 
L 553.491174 -183.719665 
L 553.489997 -186.558692 
L 553.493653 -189.39772 
L 553.496357 -192.236748 
L 553.493365 -195.075775 
L 553.484827 -197.914803 
L 553.478851 -200.753831 
L 553.469597 -203.592858 
L 553.447337 -206.431886 
L 553.425512 -209.270913 
L 553.389234 -212.109941 
L 553.321712 -214.948969 
L 553.252281 -217.787996 
L 553.121894 -220.627024 
L 552.903023 -223.466051 
L 552.652789 -226.305079 
L 552.30382 -229.144107 
L 551.739936 -231.983134 
L 550.913037 -234.822162 
L 549.738487 -237.66119 
L 547.963114 -240.500217 
L 545.293212 -243.339245 
L 541.137259 -246.178272 
L 534.595295 -249.0173 
L 524.484307 -251.856328 
L 510.455001 -254.695355 
L 496.154198 -257.534383 
L 492.141462 -260.37341 
L 503.26884 -263.212438 
L 518.896333 -266.051466 
L 530.826278 -268.890493 
L 538.558674 -271.729521 
L 543.630495 -274.568549 
L 546.90814 -277.407576 
L 549.028383 -280.246604 
L 550.439285 -283.085631 
L 551.334964 -285.924659 
L 552.019856 -288.763687 
L 552.503185 -291.602714 
L 552.817193 -294.441742 
L 553.023817 -297.280769 
L 553.179823 -300.119797 
L 553.308606 -302.958825 
L 553.390071 -305.797852 
L 553.423166 -308.63688 
L 553.441959 -311.475908 
L 553.462911 -314.314935 
L 553.483702 -317.153963 
L 553.489778 -319.99299 
L 553.488511 -322.832018 
L 553.490887 -325.671046 
L 553.489245 -328.510073 
L 553.491823 -331.349101 
L 553.496188 -334.188128 
L 553.497526 -337.027156 
L 553.497684 -339.866184 
L 553.494477 -342.705211 
L 553.494125 -345.544239 
L 553.497306 -348.383267 
L 553.499602 -351.222294 
L 553.500398 -351.222294 
L 553.500398 -351.222294 
L 553.502694 -348.383267 
L 553.505875 -345.544239 
L 553.505523 -342.705211 
L 553.502316 -339.866184 
L 553.502474 -337.027156 
L 553.503812 -334.188128 
L 553.508177 -331.349101 
L 553.510755 -328.510073 
L 553.509113 -325.671046 
L 553.511489 -322.832018 
L 553.510222 -319.99299 
L 553.516298 -317.153963 
L 553.537089 -314.314935 
L 553.558041 -311.475908 
L 553.576834 -308.63688 
L 553.609929 -305.797852 
L 553.691394 -302.958825 
L 553.820177 -300.119797 
L 553.976183 -297.280769 
L 554.182807 -294.441742 
L 554.496815 -291.602714 
L 554.980144 -288.763687 
L 555.665036 -285.924659 
L 556.560715 -283.085631 
L 557.971617 -280.246604 
L 560.09186 -277.407576 
L 563.369505 -274.568549 
L 568.441326 -271.729521 
L 576.173722 -268.890493 
L 588.103667 -266.051466 
L 603.73116 -263.212438 
L 614.858538 -260.37341 
L 610.845802 -257.534383 
L 596.544999 -254.695355 
L 582.515693 -251.856328 
L 572.404705 -249.0173 
L 565.862741 -246.178272 
L 561.706788 -243.339245 
L 559.036886 -240.500217 
L 557.261513 -237.66119 
L 556.086963 -234.822162 
L 555.260064 -231.983134 
L 554.69618 -229.144107 
L 554.347211 -226.305079 
L 554.096977 -223.466051 
L 553.878106 -220.627024 
L 553.747719 -217.787996 
L 553.678288 -214.948969 
L 553.610766 -212.109941 
L 553.574488 -209.270913 
L 553.552663 -206.431886 
L 553.530403 -203.592858 
L 553.521149 -200.753831 
L 553.515173 -197.914803 
L 553.506635 -195.075775 
L 553.503643 -192.236748 
L 553.506347 -189.39772 
L 553.510003 -186.558692 
L 553.508826 -183.719665 
L 553.507582 -180.880637 
L 553.509976 -178.04161 
L 553.515082 -175.202582 
L 553.509064 -172.363554 
L 553.50162 -169.524527 
L 553.500314 -166.685499 
L 553.501729 -163.846472 
L 553.502634 -161.007444 
L 553.500842 -158.168416 
L 553.500056 -155.329389 
L 553.500001 -152.490361 
L 553.5 -149.651333 
L 553.5 -146.812306 
L 553.5 -143.973278 
L 553.5 -141.134251 
L 553.5 -138.295223 
L 553.5 -135.456195 
L 553.5 -132.617168 
L 553.5 -129.77814 
L 553.5 -126.939113 
L 553.5 -124.100085 
L 553.5 -121.261057 
L 553.5 -118.42203 
L 553.5 -115.583002 
L 553.5 -112.743974 
L 553.5 -109.904947 
L 553.5 -107.065919 
L 553.5 -104.226892 
L 553.5 -101.387864 
L 553.5 -98.548836 
L 553.5 -95.709809 
L 553.5 -92.870781 
L 553.5 -90.031754 
L 553.500001 -87.192726 
L 553.500253 -84.353698 
L 553.523511 -81.514671 
L 553.957775 -78.675643 
L 555.368182 -75.836615 
L 555.098003 -72.997588 
L 553.786501 -70.15856 
z
" id="m39d4f2aee2" style="stroke:#4d4d4d;stroke-width:1.5;"/>
    </defs>
    <g clip-path="url(#p2e39d2ec22)">
     <use style="fill:#224fdf;stroke:#4d4d4d;stroke-width:1.5;" x="0" xlink:href="#m39d4f2aee2" y="432"/>
    </g>
   </g>
   <g id="PolyCollection_4">
    <defs>
     <path d="M 721.126404 -68.825455 
L 720.673596 -68.825455 
L 720.024721 -71.357122 
L 719.289808 -73.888789 
L 719.490461 -76.420455 
L 720.312856 -78.952122 
L 720.783619 -81.483789 
L 720.889023 -84.015456 
L 720.899507 -86.547123 
L 720.899989 -89.07879 
L 720.9 -91.610457 
L 720.9 -94.142124 
L 720.9 -96.673791 
L 720.9 -99.205458 
L 720.9 -101.737125 
L 720.9 -104.268792 
L 720.9 -106.800459 
L 720.9 -109.332126 
L 720.9 -111.863793 
L 720.9 -114.39546 
L 720.9 -116.927127 
L 720.9 -119.458794 
L 720.9 -121.990461 
L 720.9 -124.522128 
L 720.9 -127.053795 
L 720.9 -129.585462 
L 720.9 -132.117129 
L 720.9 -134.648796 
L 720.9 -137.180463 
L 720.9 -139.71213 
L 720.9 -142.243797 
L 720.9 -144.775464 
L 720.9 -147.307131 
L 720.9 -149.838798 
L 720.9 -152.370465 
L 720.9 -154.902132 
L 720.9 -157.433799 
L 720.9 -159.965466 
L 720.9 -162.497133 
L 720.9 -165.0288 
L 720.9 -167.560467 
L 720.9 -170.092134 
L 720.899996 -172.623801 
L 720.899915 -175.155468 
L 720.899216 -177.687135 
L 720.896559 -180.218802 
L 720.892818 -182.750469 
L 720.892867 -185.282136 
L 720.896625 -187.813803 
L 720.89917 -190.34547 
L 720.899157 -192.877137 
L 720.895684 -195.408804 
L 720.885436 -197.940471 
L 720.867363 -200.472138 
L 720.848707 -203.003805 
L 720.835937 -205.535472 
L 720.822198 -208.067139 
L 720.803613 -210.598806 
L 720.769173 -213.130473 
L 720.690773 -215.66214 
L 720.571064 -218.193807 
L 720.445352 -220.725474 
L 720.293658 -223.257141 
L 720.076482 -225.788808 
L 719.798767 -228.320475 
L 719.41769 -230.852142 
L 718.867229 -233.383809 
L 718.107837 -235.915475 
L 717.045955 -238.447142 
L 715.473787 -240.978809 
L 713.143933 -243.510476 
L 709.71451 -246.042143 
L 704.347111 -248.57381 
L 695.725211 -251.105477 
L 683.122068 -253.637144 
L 668.153446 -256.168811 
L 657.226873 -258.700478 
L 658.679883 -261.232145 
L 671.619398 -263.763812 
L 686.886459 -266.295479 
L 698.692719 -268.827146 
L 706.418466 -271.358813 
L 711.197295 -273.89048 
L 714.221933 -276.422147 
L 716.245153 -278.953814 
L 717.583724 -281.485481 
L 718.471966 -284.017148 
L 719.118771 -286.548815 
L 719.57839 -289.080482 
L 719.931953 -291.612149 
L 720.24289 -294.143816 
L 720.468709 -296.675483 
L 720.616556 -299.20715 
L 720.721416 -301.738817 
L 720.788862 -304.270484 
L 720.822906 -306.802151 
L 720.838629 -309.333818 
L 720.855451 -311.865485 
L 720.876706 -314.397152 
L 720.892215 -316.928819 
L 720.898479 -319.460486 
L 720.901521 -319.460486 
L 720.901521 -319.460486 
L 720.907785 -316.928819 
L 720.923294 -314.397152 
L 720.944549 -311.865485 
L 720.961371 -309.333818 
L 720.977094 -306.802151 
L 721.011138 -304.270484 
L 721.078584 -301.738817 
L 721.183444 -299.20715 
L 721.331291 -296.675483 
L 721.55711 -294.143816 
L 721.868047 -291.612149 
L 722.22161 -289.080482 
L 722.681229 -286.548815 
L 723.328034 -284.017148 
L 724.216276 -281.485481 
L 725.554847 -278.953814 
L 727.578067 -276.422147 
L 730.602705 -273.89048 
L 735.381534 -271.358813 
L 743.107281 -268.827146 
L 754.913541 -266.295479 
L 770.180602 -263.763812 
L 783.120117 -261.232145 
L 784.573127 -258.700478 
L 773.646554 -256.168811 
L 758.677932 -253.637144 
L 746.074789 -251.105477 
L 737.452889 -248.57381 
L 732.08549 -246.042143 
L 728.656067 -243.510476 
L 726.326213 -240.978809 
L 724.754045 -238.447142 
L 723.692163 -235.915475 
L 722.932771 -233.383809 
L 722.38231 -230.852142 
L 722.001233 -228.320475 
L 721.723518 -225.788808 
L 721.506342 -223.257141 
L 721.354648 -220.725474 
L 721.228936 -218.193807 
L 721.109227 -215.66214 
L 721.030827 -213.130473 
L 720.996387 -210.598806 
L 720.977802 -208.067139 
L 720.964063 -205.535472 
L 720.951293 -203.003805 
L 720.932637 -200.472138 
L 720.914564 -197.940471 
L 720.904316 -195.408804 
L 720.900843 -192.877137 
L 720.90083 -190.34547 
L 720.903375 -187.813803 
L 720.907133 -185.282136 
L 720.907182 -182.750469 
L 720.903441 -180.218802 
L 720.900784 -177.687135 
L 720.900085 -175.155468 
L 720.900004 -172.623801 
L 720.9 -170.092134 
L 720.9 -167.560467 
L 720.9 -165.0288 
L 720.9 -162.497133 
L 720.9 -159.965466 
L 720.9 -157.433799 
L 720.9 -154.902132 
L 720.9 -152.370465 
L 720.9 -149.838798 
L 720.9 -147.307131 
L 720.9 -144.775464 
L 720.9 -142.243797 
L 720.9 -139.71213 
L 720.9 -137.180463 
L 720.9 -134.648796 
L 720.9 -132.117129 
L 720.9 -129.585462 
L 720.9 -127.053795 
L 720.9 -124.522128 
L 720.9 -121.990461 
L 720.9 -119.458794 
L 720.9 -116.927127 
L 720.9 -114.39546 
L 720.9 -111.863793 
L 720.9 -109.332126 
L 720.9 -106.800459 
L 720.9 -104.268792 
L 720.9 -101.737125 
L 720.9 -99.205458 
L 720.9 -96.673791 
L 720.9 -94.142124 
L 720.9 -91.610457 
L 720.900011 -89.07879 
L 720.900493 -86.547123 
L 720.910977 -84.015456 
L 721.016381 -81.483789 
L 721.487144 -78.952122 
L 722.309539 -76.420455 
L 722.510192 -73.888789 
L 721.775279 -71.357122 
L 721.126404 -68.825455 
z
" id="mcb6f048095" style="stroke:#4d4d4d;stroke-width:1.5;"/>
    </defs>
    <g clip-path="url(#p2e39d2ec22)">
     <use style="fill:#224fdf;stroke:#4d4d4d;stroke-width:1.5;" x="0" xlink:href="#mcb6f048095" y="432"/>
    </g>
   </g>
   <g id="PolyCollection_5">
    <defs>
     <path d="M 888.59594 -69.185026 
L 888.00406 -69.185026 
L 886.861688 -72.176435 
L 886.144394 -75.167844 
L 887.303785 -78.159254 
L 888.158027 -81.150663 
L 888.293761 -84.142072 
L 888.299915 -87.133482 
L 888.3 -90.124891 
L 888.3 -93.1163 
L 888.3 -96.107709 
L 888.3 -99.099119 
L 888.3 -102.090528 
L 888.3 -105.081937 
L 888.3 -108.073347 
L 888.3 -111.064756 
L 888.3 -114.056165 
L 888.3 -117.047574 
L 888.3 -120.038984 
L 888.3 -123.030393 
L 888.3 -126.021802 
L 888.3 -129.013212 
L 888.3 -132.004621 
L 888.3 -134.99603 
L 888.3 -137.98744 
L 888.3 -140.978849 
L 888.3 -143.970258 
L 888.3 -146.961667 
L 888.3 -149.953077 
L 888.3 -152.944486 
L 888.3 -155.935895 
L 888.3 -158.927305 
L 888.3 -161.918714 
L 888.3 -164.910123 
L 888.299996 -167.901532 
L 888.299882 -170.892942 
L 888.298785 -173.884351 
L 888.295568 -176.87576 
L 888.291309 -179.86717 
L 888.287175 -182.858579 
L 888.289179 -185.849988 
L 888.293667 -188.841397 
L 888.296076 -191.832807 
L 888.293569 -194.824216 
L 888.290563 -197.815625 
L 888.286186 -200.807035 
L 888.27283 -203.798444 
L 888.266202 -206.789853 
L 888.252804 -209.781262 
L 888.205853 -212.772672 
L 888.146725 -215.764081 
L 888.079576 -218.75549 
L 887.972404 -221.7469 
L 887.776458 -224.738309 
L 887.411446 -227.729718 
L 886.846763 -230.721127 
L 886.138437 -233.712537 
L 885.199219 -236.703946 
L 883.800224 -239.695355 
L 881.555999 -242.686765 
L 877.655845 -245.678174 
L 870.95384 -248.669583 
L 859.862967 -251.660992 
L 843.526955 -254.652402 
L 826.817416 -257.643811 
L 823.890635 -260.63522 
L 838.838972 -263.62663 
L 857.062147 -266.618039 
L 869.711368 -269.609448 
L 876.927331 -272.600858 
L 880.93038 -275.592267 
L 883.529001 -278.583676 
L 885.285534 -281.575085 
L 886.355915 -284.566495 
L 886.965 -287.557904 
L 887.376126 -290.549313 
L 887.668795 -293.540723 
L 887.855876 -296.532132 
L 888.006585 -299.523541 
L 888.127322 -302.51495 
L 888.202998 -305.50636 
L 888.248446 -308.497769 
L 888.26452 -311.489178 
L 888.257991 -314.480588 
L 888.253492 -317.471997 
L 888.267242 -320.463406 
L 888.282689 -323.454815 
L 888.289701 -326.446225 
L 888.290675 -329.437634 
L 888.290577 -332.429043 
L 888.294361 -335.420453 
L 888.298398 -338.411862 
L 888.297983 -341.403271 
L 888.294866 -344.39468 
L 888.293669 -347.38609 
L 888.295821 -350.377499 
L 888.297752 -353.368908 
L 888.294761 -356.360318 
L 888.292203 -359.351727 
L 888.295977 -362.343136 
L 888.299301 -365.334545 
L 888.300699 -365.334545 
L 888.300699 -365.334545 
L 888.304023 -362.343136 
L 888.307797 -359.351727 
L 888.305239 -356.360318 
L 888.302248 -353.368908 
L 888.304179 -350.377499 
L 888.306331 -347.38609 
L 888.305134 -344.39468 
L 888.302017 -341.403271 
L 888.301602 -338.411862 
L 888.305639 -335.420453 
L 888.309423 -332.429043 
L 888.309325 -329.437634 
L 888.310299 -326.446225 
L 888.317311 -323.454815 
L 888.332758 -320.463406 
L 888.346508 -317.471997 
L 888.342009 -314.480588 
L 888.33548 -311.489178 
L 888.351554 -308.497769 
L 888.397002 -305.50636 
L 888.472678 -302.51495 
L 888.593415 -299.523541 
L 888.744124 -296.532132 
L 888.931205 -293.540723 
L 889.223874 -290.549313 
L 889.635 -287.557904 
L 890.244085 -284.566495 
L 891.314466 -281.575085 
L 893.070999 -278.583676 
L 895.66962 -275.592267 
L 899.672669 -272.600858 
L 906.888632 -269.609448 
L 919.537853 -266.618039 
L 937.761028 -263.62663 
L 952.709365 -260.63522 
L 949.782584 -257.643811 
L 933.073045 -254.652402 
L 916.737033 -251.660992 
L 905.64616 -248.669583 
L 898.944155 -245.678174 
L 895.044001 -242.686765 
L 892.799776 -239.695355 
L 891.400781 -236.703946 
L 890.461563 -233.712537 
L 889.753237 -230.721127 
L 889.188554 -227.729718 
L 888.823542 -224.738309 
L 888.627596 -221.7469 
L 888.520424 -218.75549 
L 888.453275 -215.764081 
L 888.394147 -212.772672 
L 888.347196 -209.781262 
L 888.333798 -206.789853 
L 888.32717 -203.798444 
L 888.313814 -200.807035 
L 888.309437 -197.815625 
L 888.306431 -194.824216 
L 888.303924 -191.832807 
L 888.306333 -188.841397 
L 888.310821 -185.849988 
L 888.312825 -182.858579 
L 888.308691 -179.86717 
L 888.304432 -176.87576 
L 888.301215 -173.884351 
L 888.300118 -170.892942 
L 888.300004 -167.901532 
L 888.3 -164.910123 
L 888.3 -161.918714 
L 888.3 -158.927305 
L 888.3 -155.935895 
L 888.3 -152.944486 
L 888.3 -149.953077 
L 888.3 -146.961667 
L 888.3 -143.970258 
L 888.3 -140.978849 
L 888.3 -137.98744 
L 888.3 -134.99603 
L 888.3 -132.004621 
L 888.3 -129.013212 
L 888.3 -126.021802 
L 888.3 -123.030393 
L 888.3 -120.038984 
L 888.3 -117.047574 
L 888.3 -114.056165 
L 888.3 -111.064756 
L 888.3 -108.073347 
L 888.3 -105.081937 
L 888.3 -102.090528 
L 888.3 -99.099119 
L 888.3 -96.107709 
L 888.3 -93.1163 
L 888.3 -90.124891 
L 888.300085 -87.133482 
L 888.306239 -84.142072 
L 888.441973 -81.150663 
L 889.296215 -78.159254 
L 890.455606 -75.167844 
L 889.738312 -72.176435 
L 888.59594 -69.185026 
z
" id="m53c95cc0d3" style="stroke:#4d4d4d;stroke-width:1.5;"/>
    </defs>
    <g clip-path="url(#p2e39d2ec22)">
     <use style="fill:#224fdf;stroke:#4d4d4d;stroke-width:1.5;" x="0" xlink:href="#m53c95cc0d3" y="432"/>
    </g>
   </g>
   <g id="line2d_7">
    <path clip-path="url(#p2e39d2ec22)" d="M 218.7 189.06917 
L 218.7 156.206254 
" style="fill:none;stroke:#4d4d4d;stroke-linecap:round;stroke-width:1.5;"/>
   </g>
   <g id="line2d_8">
    <path clip-path="url(#p2e39d2ec22)" d="M 218.7 176.768437 
L 218.7 168.539084 
" style="fill:none;stroke:#4d4d4d;stroke-linecap:round;stroke-width:4.5;"/>
   </g>
   <g id="line2d_9">
    <path clip-path="url(#p2e39d2ec22)" d="M 386.1 189.902509 
L 386.1 154.823346 
" style="fill:none;stroke:#4d4d4d;stroke-linecap:round;stroke-width:1.5;"/>
   </g>
   <g id="line2d_10">
    <path clip-path="url(#p2e39d2ec22)" d="M 386.1 176.74634 
L 386.1 167.970987 
" style="fill:none;stroke:#4d4d4d;stroke-linecap:round;stroke-width:4.5;"/>
   </g>
   <g id="line2d_11">
    <path clip-path="url(#p2e39d2ec22)" d="M 553.5 192.576007 
L 553.5 152.593217 
" style="fill:none;stroke:#4d4d4d;stroke-linecap:round;stroke-width:1.5;"/>
   </g>
   <g id="line2d_12">
    <path clip-path="url(#p2e39d2ec22)" d="M 553.5 177.582332 
L 553.5 167.586525 
" style="fill:none;stroke:#4d4d4d;stroke-linecap:round;stroke-width:4.5;"/>
   </g>
   <g id="line2d_13">
    <path clip-path="url(#p2e39d2ec22)" d="M 720.9 190.257597 
L 720.9 154.960243 
" style="fill:none;stroke:#4d4d4d;stroke-linecap:round;stroke-width:1.5;"/>
   </g>
   <g id="line2d_14">
    <path clip-path="url(#p2e39d2ec22)" d="M 720.9 177.023565 
L 720.9 168.196939 
" style="fill:none;stroke:#4d4d4d;stroke-linecap:round;stroke-width:4.5;"/>
   </g>
   <g id="line2d_15">
    <path clip-path="url(#p2e39d2ec22)" d="M 888.3 190.520379 
L 888.3 155.122101 
" style="fill:none;stroke:#4d4d4d;stroke-linecap:round;stroke-width:1.5;"/>
   </g>
   <g id="line2d_16">
    <path clip-path="url(#p2e39d2ec22)" d="M 888.3 177.244903 
L 888.3 168.394553 
" style="fill:none;stroke:#4d4d4d;stroke-linecap:round;stroke-width:4.5;"/>
   </g>
   <g id="patch_3">
    <path d="M 135 378 
L 135 51.84 
" style="fill:none;stroke:#ffffff;stroke-linecap:square;stroke-linejoin:miter;stroke-width:0.8;"/>
   </g>
   <g id="patch_4">
    <path d="M 972 378 
L 972 51.84 
" style="fill:none;stroke:#ffffff;stroke-linecap:square;stroke-linejoin:miter;stroke-width:0.8;"/>
   </g>
   <g id="patch_5">
    <path d="M 135 378 
L 972 378 
" style="fill:none;stroke:#ffffff;stroke-linecap:square;stroke-linejoin:miter;stroke-width:0.8;"/>
   </g>
   <g id="patch_6">
    <path d="M 135 51.84 
L 972 51.84 
" style="fill:none;stroke:#ffffff;stroke-linecap:square;stroke-linejoin:miter;stroke-width:0.8;"/>
   </g>
   <g id="PathCollection_1">
    <defs>
     <path d="M 0 1.5 
C 0.397805 1.5 0.77937 1.341951 1.06066 1.06066 
C 1.341951 0.77937 1.5 0.397805 1.5 0 
C 1.5 -0.397805 1.341951 -0.77937 1.06066 -1.06066 
C 0.77937 -1.341951 0.397805 -1.5 0 -1.5 
C -0.397805 -1.5 -0.77937 -1.341951 -1.06066 -1.06066 
C -1.341951 -0.77937 -1.5 -0.397805 -1.5 0 
C -1.5 0.397805 -1.341951 0.77937 -1.06066 1.06066 
C -0.77937 1.341951 -0.397805 1.5 0 1.5 
z
" id="m9c4bd12b5f" style="stroke:#4d4d4d;"/>
    </defs>
    <g clip-path="url(#p2e39d2ec22)">
     <use style="fill:#ffffff;stroke:#4d4d4d;" x="218.7" xlink:href="#m9c4bd12b5f" y="172.315407"/>
    </g>
   </g>
   <g id="PathCollection_2">
    <g clip-path="url(#p2e39d2ec22)">
     <use style="fill:#ffffff;stroke:#4d4d4d;" x="386.1" xlink:href="#m9c4bd12b5f" y="172.254119"/>
    </g>
   </g>
   <g id="PathCollection_3">
    <g clip-path="url(#p2e39d2ec22)">
     <use style="fill:#ffffff;stroke:#4d4d4d;" x="553.5" xlink:href="#m9c4bd12b5f" y="172.457658"/>
    </g>
   </g>
   <g id="PathCollection_4">
    <g clip-path="url(#p2e39d2ec22)">
     <use style="fill:#ffffff;stroke:#4d4d4d;" x="720.9" xlink:href="#m9c4bd12b5f" y="172.254119"/>
    </g>
   </g>
   <g id="PathCollection_5">
    <g clip-path="url(#p2e39d2ec22)">
     <use style="fill:#ffffff;stroke:#4d4d4d;" x="888.3" xlink:href="#m9c4bd12b5f" y="172.567218"/>
    </g>
   </g>
  </g>
 </g>
 <defs>
  <clipPath id="p2e39d2ec22">
   <rect height="326.16" width="837" x="135" y="51.84"/>
  </clipPath>
 </defs>
</svg>
