<?xml version="1.0" encoding="utf-8" standalone="no"?>
<!DOCTYPE svg PUBLIC "-//W3C//DTD SVG 1.1//EN"
  "http://www.w3.org/Graphics/SVG/1.1/DTD/svg11.dtd">
<!-- Created with matplotlib (http://matplotlib.org/) -->
<svg height="432pt" version="1.1" viewBox="0 0 432 432" width="432pt" xmlns="http://www.w3.org/2000/svg" xmlns:xlink="http://www.w3.org/1999/xlink">
 <defs>
  <style type="text/css">
*{stroke-linecap:butt;stroke-linejoin:round;}
  </style>
 </defs>
 <g id="figure_1">
  <g id="patch_1">
   <path d="M 0 432 
L 432 432 
L 432 0 
L 0 0 
z
" style="fill:#ffffff;"/>
  </g>
  <g id="axes_1">
   <g id="patch_2">
    <path d="M 54 378 
L 388.8 378 
L 388.8 51.84 
L 54 51.84 
z
" style="fill:#e6e6e6;"/>
   </g>
   <g id="matplotlib.axis_1">
    <g id="xtick_1">
     <g id="text_1">
      <!-- 0 -->
      <defs>
       <path d="M 31.78125 66.40625 
Q 24.171875 66.40625 20.328125 58.90625 
Q 16.5 51.421875 16.5 36.375 
Q 16.5 21.390625 20.328125 13.890625 
Q 24.171875 6.390625 31.78125 6.390625 
Q 39.453125 6.390625 43.28125 13.890625 
Q 47.125 21.390625 47.125 36.375 
Q 47.125 51.421875 43.28125 58.90625 
Q 39.453125 66.40625 31.78125 66.40625 
z
M 31.78125 74.21875 
Q 44.046875 74.21875 50.515625 64.515625 
Q 56.984375 54.828125 56.984375 36.375 
Q 56.984375 17.96875 50.515625 8.265625 
Q 44.046875 -1.421875 31.78125 -1.421875 
Q 19.53125 -1.421875 13.0625 8.265625 
Q 6.59375 17.96875 6.59375 36.375 
Q 6.59375 54.828125 13.0625 64.515625 
Q 19.53125 74.21875 31.78125 74.21875 
z
" id="DejaVuSans-30"/>
      </defs>
      <g style="fill:#262626;" transform="translate(134.51875 392.598437)scale(0.1 -0.1)">
       <use xlink:href="#DejaVuSans-30"/>
      </g>
     </g>
    </g>
    <g id="xtick_2">
     <g id="text_2">
      <!-- 1 -->
      <defs>
       <path d="M 12.40625 8.296875 
L 28.515625 8.296875 
L 28.515625 63.921875 
L 10.984375 60.40625 
L 10.984375 69.390625 
L 28.421875 72.90625 
L 38.28125 72.90625 
L 38.28125 8.296875 
L 54.390625 8.296875 
L 54.390625 0 
L 12.40625 0 
z
" id="DejaVuSans-31"/>
      </defs>
      <g style="fill:#262626;" transform="translate(301.91875 392.598437)scale(0.1 -0.1)">
       <use xlink:href="#DejaVuSans-31"/>
      </g>
     </g>
    </g>
    <g id="text_3">
     <!-- feature_3 -->
     <defs>
      <path d="M 37.109375 75.984375 
L 37.109375 68.5 
L 28.515625 68.5 
Q 23.6875 68.5 21.796875 66.546875 
Q 19.921875 64.59375 19.921875 59.515625 
L 19.921875 54.6875 
L 34.71875 54.6875 
L 34.71875 47.703125 
L 19.921875 47.703125 
L 19.921875 0 
L 10.890625 0 
L 10.890625 47.703125 
L 2.296875 47.703125 
L 2.296875 54.6875 
L 10.890625 54.6875 
L 10.890625 58.5 
Q 10.890625 67.625 15.140625 71.796875 
Q 19.390625 75.984375 28.609375 75.984375 
z
" id="DejaVuSans-66"/>
      <path d="M 56.203125 29.59375 
L 56.203125 25.203125 
L 14.890625 25.203125 
Q 15.484375 15.921875 20.484375 11.0625 
Q 25.484375 6.203125 34.421875 6.203125 
Q 39.59375 6.203125 44.453125 7.46875 
Q 49.3125 8.734375 54.109375 11.28125 
L 54.109375 2.78125 
Q 49.265625 0.734375 44.1875 -0.34375 
Q 39.109375 -1.421875 33.890625 -1.421875 
Q 20.796875 -1.421875 13.15625 6.1875 
Q 5.515625 13.8125 5.515625 26.8125 
Q 5.515625 40.234375 12.765625 48.109375 
Q 20.015625 56 32.328125 56 
Q 43.359375 56 49.78125 48.890625 
Q 56.203125 41.796875 56.203125 29.59375 
z
M 47.21875 32.234375 
Q 47.125 39.59375 43.09375 43.984375 
Q 39.0625 48.390625 32.421875 48.390625 
Q 24.90625 48.390625 20.390625 44.140625 
Q 15.875 39.890625 15.1875 32.171875 
z
" id="DejaVuSans-65"/>
      <path d="M 34.28125 27.484375 
Q 23.390625 27.484375 19.1875 25 
Q 14.984375 22.515625 14.984375 16.5 
Q 14.984375 11.71875 18.140625 8.90625 
Q 21.296875 6.109375 26.703125 6.109375 
Q 34.1875 6.109375 38.703125 11.40625 
Q 43.21875 16.703125 43.21875 25.484375 
L 43.21875 27.484375 
z
M 52.203125 31.203125 
L 52.203125 0 
L 43.21875 0 
L 43.21875 8.296875 
Q 40.140625 3.328125 35.546875 0.953125 
Q 30.953125 -1.421875 24.3125 -1.421875 
Q 15.921875 -1.421875 10.953125 3.296875 
Q 6 8.015625 6 15.921875 
Q 6 25.140625 12.171875 29.828125 
Q 18.359375 34.515625 30.609375 34.515625 
L 43.21875 34.515625 
L 43.21875 35.40625 
Q 43.21875 41.609375 39.140625 45 
Q 35.0625 48.390625 27.6875 48.390625 
Q 23 48.390625 18.546875 47.265625 
Q 14.109375 46.140625 10.015625 43.890625 
L 10.015625 52.203125 
Q 14.9375 54.109375 19.578125 55.046875 
Q 24.21875 56 28.609375 56 
Q 40.484375 56 46.34375 49.84375 
Q 52.203125 43.703125 52.203125 31.203125 
z
" id="DejaVuSans-61"/>
      <path d="M 18.3125 70.21875 
L 18.3125 54.6875 
L 36.8125 54.6875 
L 36.8125 47.703125 
L 18.3125 47.703125 
L 18.3125 18.015625 
Q 18.3125 11.328125 20.140625 9.421875 
Q 21.96875 7.515625 27.59375 7.515625 
L 36.8125 7.515625 
L 36.8125 0 
L 27.59375 0 
Q 17.1875 0 13.234375 3.875 
Q 9.28125 7.765625 9.28125 18.015625 
L 9.28125 47.703125 
L 2.6875 47.703125 
L 2.6875 54.6875 
L 9.28125 54.6875 
L 9.28125 70.21875 
z
" id="DejaVuSans-74"/>
      <path d="M 8.5 21.578125 
L 8.5 54.6875 
L 17.484375 54.6875 
L 17.484375 21.921875 
Q 17.484375 14.15625 20.5 10.265625 
Q 23.53125 6.390625 29.59375 6.390625 
Q 36.859375 6.390625 41.078125 11.03125 
Q 45.3125 15.671875 45.3125 23.6875 
L 45.3125 54.6875 
L 54.296875 54.6875 
L 54.296875 0 
L 45.3125 0 
L 45.3125 8.40625 
Q 42.046875 3.421875 37.71875 1 
Q 33.40625 -1.421875 27.6875 -1.421875 
Q 18.265625 -1.421875 13.375 4.4375 
Q 8.5 10.296875 8.5 21.578125 
z
M 31.109375 56 
z
" id="DejaVuSans-75"/>
      <path d="M 41.109375 46.296875 
Q 39.59375 47.171875 37.8125 47.578125 
Q 36.03125 48 33.890625 48 
Q 26.265625 48 22.1875 43.046875 
Q 18.109375 38.09375 18.109375 28.8125 
L 18.109375 0 
L 9.078125 0 
L 9.078125 54.6875 
L 18.109375 54.6875 
L 18.109375 46.1875 
Q 20.953125 51.171875 25.484375 53.578125 
Q 30.03125 56 36.53125 56 
Q 37.453125 56 38.578125 55.875 
Q 39.703125 55.765625 41.0625 55.515625 
z
" id="DejaVuSans-72"/>
      <path d="M 50.984375 -16.609375 
L 50.984375 -23.578125 
L -0.984375 -23.578125 
L -0.984375 -16.609375 
z
" id="DejaVuSans-5f"/>
      <path d="M 40.578125 39.3125 
Q 47.65625 37.796875 51.625 33 
Q 55.609375 28.21875 55.609375 21.1875 
Q 55.609375 10.40625 48.1875 4.484375 
Q 40.765625 -1.421875 27.09375 -1.421875 
Q 22.515625 -1.421875 17.65625 -0.515625 
Q 12.796875 0.390625 7.625 2.203125 
L 7.625 11.71875 
Q 11.71875 9.328125 16.59375 8.109375 
Q 21.484375 6.890625 26.8125 6.890625 
Q 36.078125 6.890625 40.9375 10.546875 
Q 45.796875 14.203125 45.796875 21.1875 
Q 45.796875 27.640625 41.28125 31.265625 
Q 36.765625 34.90625 28.71875 34.90625 
L 20.21875 34.90625 
L 20.21875 43.015625 
L 29.109375 43.015625 
Q 36.375 43.015625 40.234375 45.921875 
Q 44.09375 48.828125 44.09375 54.296875 
Q 44.09375 59.90625 40.109375 62.90625 
Q 36.140625 65.921875 28.71875 65.921875 
Q 24.65625 65.921875 20.015625 65.03125 
Q 15.375 64.15625 9.8125 62.3125 
L 9.8125 71.09375 
Q 15.4375 72.65625 20.34375 73.4375 
Q 25.25 74.21875 29.59375 74.21875 
Q 40.828125 74.21875 47.359375 69.109375 
Q 53.90625 64.015625 53.90625 55.328125 
Q 53.90625 49.265625 50.4375 45.09375 
Q 46.96875 40.921875 40.578125 39.3125 
z
" id="DejaVuSans-33"/>
     </defs>
     <g style="fill:#262626;" transform="translate(197.558594 406.276563)scale(0.1 -0.1)">
      <use xlink:href="#DejaVuSans-66"/>
      <use x="35.205078" xlink:href="#DejaVuSans-65"/>
      <use x="96.728516" xlink:href="#DejaVuSans-61"/>
      <use x="158.007812" xlink:href="#DejaVuSans-74"/>
      <use x="197.216797" xlink:href="#DejaVuSans-75"/>
      <use x="260.595703" xlink:href="#DejaVuSans-72"/>
      <use x="301.677734" xlink:href="#DejaVuSans-65"/>
      <use x="363.201172" xlink:href="#DejaVuSans-5f"/>
      <use x="413.201172" xlink:href="#DejaVuSans-33"/>
     </g>
    </g>
   </g>
   <g id="matplotlib.axis_2">
    <g id="ytick_1">
     <g id="line2d_1">
      <path clip-path="url(#p2c372703a0)" d="M 54 340.748356 
L 388.8 340.748356 
" style="fill:none;stroke:#ffffff;stroke-linecap:round;stroke-width:0.8;"/>
     </g>
     <g id="text_4">
      <!-- −30 -->
      <defs>
       <path d="M 10.59375 35.5 
L 73.1875 35.5 
L 73.1875 27.203125 
L 10.59375 27.203125 
z
" id="DejaVuSans-2212"/>
      </defs>
      <g style="fill:#262626;" transform="translate(25.895312 344.547575)scale(0.1 -0.1)">
       <use xlink:href="#DejaVuSans-2212"/>
       <use x="83.789062" xlink:href="#DejaVuSans-33"/>
       <use x="147.412109" xlink:href="#DejaVuSans-30"/>
      </g>
     </g>
    </g>
    <g id="ytick_2">
     <g id="line2d_2">
      <path clip-path="url(#p2c372703a0)" d="M 54 284.506925 
L 388.8 284.506925 
" style="fill:none;stroke:#ffffff;stroke-linecap:round;stroke-width:0.8;"/>
     </g>
     <g id="text_5">
      <!-- −20 -->
      <defs>
       <path d="M 19.1875 8.296875 
L 53.609375 8.296875 
L 53.609375 0 
L 7.328125 0 
L 7.328125 8.296875 
Q 12.9375 14.109375 22.625 23.890625 
Q 32.328125 33.6875 34.8125 36.53125 
Q 39.546875 41.84375 41.421875 45.53125 
Q 43.3125 49.21875 43.3125 52.78125 
Q 43.3125 58.59375 39.234375 62.25 
Q 35.15625 65.921875 28.609375 65.921875 
Q 23.96875 65.921875 18.8125 64.3125 
Q 13.671875 62.703125 7.8125 59.421875 
L 7.8125 69.390625 
Q 13.765625 71.78125 18.9375 73 
Q 24.125 74.21875 28.421875 74.21875 
Q 39.75 74.21875 46.484375 68.546875 
Q 53.21875 62.890625 53.21875 53.421875 
Q 53.21875 48.921875 51.53125 44.890625 
Q 49.859375 40.875 45.40625 35.40625 
Q 44.1875 33.984375 37.640625 27.21875 
Q 31.109375 20.453125 19.1875 8.296875 
z
" id="DejaVuSans-32"/>
      </defs>
      <g style="fill:#262626;" transform="translate(25.895312 288.306144)scale(0.1 -0.1)">
       <use xlink:href="#DejaVuSans-2212"/>
       <use x="83.789062" xlink:href="#DejaVuSans-32"/>
       <use x="147.412109" xlink:href="#DejaVuSans-30"/>
      </g>
     </g>
    </g>
    <g id="ytick_3">
     <g id="line2d_3">
      <path clip-path="url(#p2c372703a0)" d="M 54 228.265494 
L 388.8 228.265494 
" style="fill:none;stroke:#ffffff;stroke-linecap:round;stroke-width:0.8;"/>
     </g>
     <g id="text_6">
      <!-- −10 -->
      <g style="fill:#262626;" transform="translate(25.895312 232.064713)scale(0.1 -0.1)">
       <use xlink:href="#DejaVuSans-2212"/>
       <use x="83.789062" xlink:href="#DejaVuSans-31"/>
       <use x="147.412109" xlink:href="#DejaVuSans-30"/>
      </g>
     </g>
    </g>
    <g id="ytick_4">
     <g id="line2d_4">
      <path clip-path="url(#p2c372703a0)" d="M 54 172.024063 
L 388.8 172.024063 
" style="fill:none;stroke:#ffffff;stroke-linecap:round;stroke-width:0.8;"/>
     </g>
     <g id="text_7">
      <!-- 0 -->
      <g style="fill:#262626;" transform="translate(40.6375 175.823282)scale(0.1 -0.1)">
       <use xlink:href="#DejaVuSans-30"/>
      </g>
     </g>
    </g>
    <g id="ytick_5">
     <g id="line2d_5">
      <path clip-path="url(#p2c372703a0)" d="M 54 115.782632 
L 388.8 115.782632 
" style="fill:none;stroke:#ffffff;stroke-linecap:round;stroke-width:0.8;"/>
     </g>
     <g id="text_8">
      <!-- 10 -->
      <g style="fill:#262626;" transform="translate(34.275 119.58185)scale(0.1 -0.1)">
       <use xlink:href="#DejaVuSans-31"/>
       <use x="63.623047" xlink:href="#DejaVuSans-30"/>
      </g>
     </g>
    </g>
    <g id="ytick_6">
     <g id="line2d_6">
      <path clip-path="url(#p2c372703a0)" d="M 54 59.541201 
L 388.8 59.541201 
" style="fill:none;stroke:#ffffff;stroke-linecap:round;stroke-width:0.8;"/>
     </g>
     <g id="text_9">
      <!-- 20 -->
      <g style="fill:#262626;" transform="translate(34.275 63.340419)scale(0.1 -0.1)">
       <use xlink:href="#DejaVuSans-32"/>
       <use x="63.623047" xlink:href="#DejaVuSans-30"/>
      </g>
     </g>
    </g>
    <g id="text_10">
     <!-- target -->
     <defs>
      <path d="M 45.40625 27.984375 
Q 45.40625 37.75 41.375 43.109375 
Q 37.359375 48.484375 30.078125 48.484375 
Q 22.859375 48.484375 18.828125 43.109375 
Q 14.796875 37.75 14.796875 27.984375 
Q 14.796875 18.265625 18.828125 12.890625 
Q 22.859375 7.515625 30.078125 7.515625 
Q 37.359375 7.515625 41.375 12.890625 
Q 45.40625 18.265625 45.40625 27.984375 
z
M 54.390625 6.78125 
Q 54.390625 -7.171875 48.1875 -13.984375 
Q 42 -20.796875 29.203125 -20.796875 
Q 24.46875 -20.796875 20.265625 -20.09375 
Q 16.0625 -19.390625 12.109375 -17.921875 
L 12.109375 -9.1875 
Q 16.0625 -11.328125 19.921875 -12.34375 
Q 23.78125 -13.375 27.78125 -13.375 
Q 36.625 -13.375 41.015625 -8.765625 
Q 45.40625 -4.15625 45.40625 5.171875 
L 45.40625 9.625 
Q 42.625 4.78125 38.28125 2.390625 
Q 33.9375 0 27.875 0 
Q 17.828125 0 11.671875 7.65625 
Q 5.515625 15.328125 5.515625 27.984375 
Q 5.515625 40.671875 11.671875 48.328125 
Q 17.828125 56 27.875 56 
Q 33.9375 56 38.28125 53.609375 
Q 42.625 51.21875 45.40625 46.390625 
L 45.40625 54.6875 
L 54.390625 54.6875 
z
" id="DejaVuSans-67"/>
     </defs>
     <g style="fill:#262626;" transform="translate(19.815625 230.209844)rotate(-90)scale(0.1 -0.1)">
      <use xlink:href="#DejaVuSans-74"/>
      <use x="39.208984" xlink:href="#DejaVuSans-61"/>
      <use x="100.488281" xlink:href="#DejaVuSans-72"/>
      <use x="141.585938" xlink:href="#DejaVuSans-67"/>
      <use x="205.0625" xlink:href="#DejaVuSans-65"/>
      <use x="266.585938" xlink:href="#DejaVuSans-74"/>
     </g>
    </g>
   </g>
   <g id="PolyCollection_1">
    <defs>
     <path d="M 137.990179 -68.845329 
L 137.409821 -68.845329 
L 136.00468 -71.67217 
L 135.940955 -74.499011 
L 137.375853 -77.325852 
L 137.689392 -80.152693 
L 137.699938 -82.979534 
L 137.7 -85.806375 
L 137.7 -88.633216 
L 137.7 -91.460057 
L 137.7 -94.286898 
L 137.7 -97.113739 
L 137.7 -99.94058 
L 137.7 -102.767421 
L 137.7 -105.594262 
L 137.7 -108.421103 
L 137.7 -111.247943 
L 137.7 -114.074784 
L 137.7 -116.901625 
L 137.7 -119.728466 
L 137.7 -122.555307 
L 137.7 -125.382148 
L 137.7 -128.208989 
L 137.7 -131.03583 
L 137.7 -133.862671 
L 137.7 -136.689512 
L 137.7 -139.516353 
L 137.7 -142.343194 
L 137.7 -145.170035 
L 137.7 -147.996876 
L 137.7 -150.823717 
L 137.699996 -153.650558 
L 137.699743 -156.477399 
L 137.697069 -159.304239 
L 137.693283 -162.13108 
L 137.69663 -164.957921 
L 137.698813 -167.784762 
L 137.697637 -170.611603 
L 137.698733 -173.438444 
L 137.698718 -176.265285 
L 137.695745 -179.092126 
L 137.6948 -181.918967 
L 137.695917 -184.745808 
L 137.696462 -187.572649 
L 137.695637 -190.39949 
L 137.690892 -193.226331 
L 137.686327 -196.053172 
L 137.687916 -198.880013 
L 137.676351 -201.706854 
L 137.66009 -204.533694 
L 137.651026 -207.360535 
L 137.637461 -210.187376 
L 137.618362 -213.014217 
L 137.584665 -215.841058 
L 137.515635 -218.667899 
L 137.414957 -221.49474 
L 137.247963 -224.321581 
L 136.981175 -227.148422 
L 136.639844 -229.975263 
L 136.185073 -232.802104 
L 135.572384 -235.628945 
L 134.586833 -238.455786 
L 132.95739 -241.282627 
L 130.526761 -244.109468 
L 126.673071 -246.936309 
L 119.808198 -249.763149 
L 108.381463 -252.58999 
L 91.99722 -255.416831 
L 74.054 -258.243672 
L 70.74 -261.070513 
L 87.022622 -263.897354 
L 105.417662 -266.724195 
L 118.351867 -269.551036 
L 125.840024 -272.377877 
L 130.031651 -275.204718 
L 132.616351 -278.031559 
L 134.282059 -280.8584 
L 135.483858 -283.685241 
L 136.201697 -286.512082 
L 136.660074 -289.338923 
L 136.977814 -292.165764 
L 137.220668 -294.992605 
L 137.380186 -297.819445 
L 137.504442 -300.646286 
L 137.596383 -303.473127 
L 137.640219 -306.299968 
L 137.656909 -309.126809 
L 137.665107 -311.95365 
L 137.679507 -314.780491 
L 137.68637 -317.607332 
L 137.689774 -320.434173 
L 137.691026 -323.261014 
L 137.691981 -326.087855 
L 137.697353 -328.914696 
L 137.698629 -331.741537 
L 137.694438 -334.568378 
L 137.694353 -337.395219 
L 137.698487 -340.22206 
L 137.698005 -343.0489 
L 137.69812 -345.875741 
L 137.699678 -348.702582 
L 137.700322 -348.702582 
L 137.700322 -348.702582 
L 137.70188 -345.875741 
L 137.701995 -343.0489 
L 137.701513 -340.22206 
L 137.705647 -337.395219 
L 137.705562 -334.568378 
L 137.701371 -331.741537 
L 137.702647 -328.914696 
L 137.708019 -326.087855 
L 137.708974 -323.261014 
L 137.710226 -320.434173 
L 137.71363 -317.607332 
L 137.720493 -314.780491 
L 137.734893 -311.95365 
L 137.743091 -309.126809 
L 137.759781 -306.299968 
L 137.803617 -303.473127 
L 137.895558 -300.646286 
L 138.019814 -297.819445 
L 138.179332 -294.992605 
L 138.422186 -292.165764 
L 138.739926 -289.338923 
L 139.198303 -286.512082 
L 139.916142 -283.685241 
L 141.117941 -280.8584 
L 142.783649 -278.031559 
L 145.368349 -275.204718 
L 149.559976 -272.377877 
L 157.048133 -269.551036 
L 169.982338 -266.724195 
L 188.377378 -263.897354 
L 204.66 -261.070513 
L 201.346 -258.243672 
L 183.40278 -255.416831 
L 167.018537 -252.58999 
L 155.591802 -249.763149 
L 148.726929 -246.936309 
L 144.873239 -244.109468 
L 142.44261 -241.282627 
L 140.813167 -238.455786 
L 139.827616 -235.628945 
L 139.214927 -232.802104 
L 138.760156 -229.975263 
L 138.418825 -227.148422 
L 138.152037 -224.321581 
L 137.985043 -221.49474 
L 137.884365 -218.667899 
L 137.815335 -215.841058 
L 137.781638 -213.014217 
L 137.762539 -210.187376 
L 137.748974 -207.360535 
L 137.73991 -204.533694 
L 137.723649 -201.706854 
L 137.712084 -198.880013 
L 137.713673 -196.053172 
L 137.709108 -193.226331 
L 137.704363 -190.39949 
L 137.703538 -187.572649 
L 137.704083 -184.745808 
L 137.7052 -181.918967 
L 137.704255 -179.092126 
L 137.701282 -176.265285 
L 137.701267 -173.438444 
L 137.702363 -170.611603 
L 137.701187 -167.784762 
L 137.70337 -164.957921 
L 137.706717 -162.13108 
L 137.702931 -159.304239 
L 137.700257 -156.477399 
L 137.700004 -153.650558 
L 137.7 -150.823717 
L 137.7 -147.996876 
L 137.7 -145.170035 
L 137.7 -142.343194 
L 137.7 -139.516353 
L 137.7 -136.689512 
L 137.7 -133.862671 
L 137.7 -131.03583 
L 137.7 -128.208989 
L 137.7 -125.382148 
L 137.7 -122.555307 
L 137.7 -119.728466 
L 137.7 -116.901625 
L 137.7 -114.074784 
L 137.7 -111.247943 
L 137.7 -108.421103 
L 137.7 -105.594262 
L 137.7 -102.767421 
L 137.7 -99.94058 
L 137.7 -97.113739 
L 137.7 -94.286898 
L 137.7 -91.460057 
L 137.7 -88.633216 
L 137.7 -85.806375 
L 137.700062 -82.979534 
L 137.710608 -80.152693 
L 138.024147 -77.325852 
L 139.459045 -74.499011 
L 139.39532 -71.67217 
L 137.990179 -68.845329 
z
" id="mf3b2e09d26" style="stroke:#4d4d4d;stroke-width:1.5;"/>
    </defs>
    <g clip-path="url(#p2c372703a0)">
     <use style="fill:#224fdf;stroke:#4d4d4d;stroke-width:1.5;" x="0" xlink:href="#mf3b2e09d26" y="432"/>
    </g>
   </g>
   <g id="PolyCollection_2">
    <defs>
     <path d="M 305.420999 -68.825455 
L 304.779001 -68.825455 
L 303.135081 -71.820496 
L 303.340521 -74.815537 
L 304.869526 -77.810579 
L 305.095584 -80.80562 
L 305.099988 -83.800661 
L 305.1 -86.795702 
L 305.1 -89.790744 
L 305.1 -92.785785 
L 305.1 -95.780826 
L 305.1 -98.775868 
L 305.1 -101.770909 
L 305.1 -104.76595 
L 305.1 -107.760992 
L 305.1 -110.756033 
L 305.1 -113.751074 
L 305.1 -116.746116 
L 305.1 -119.741157 
L 305.1 -122.736198 
L 305.1 -125.73124 
L 305.1 -128.726281 
L 305.1 -131.721322 
L 305.1 -134.716364 
L 305.1 -137.711405 
L 305.1 -140.706446 
L 305.1 -143.701488 
L 305.1 -146.696529 
L 305.1 -149.69157 
L 305.099999 -152.686612 
L 305.099907 -155.681653 
L 305.098953 -158.676694 
L 305.098282 -161.671736 
L 305.099585 -164.666777 
L 305.099744 -167.661818 
L 305.09676 -170.65686 
L 305.090308 -173.651901 
L 305.090989 -176.646942 
L 305.09227 -179.641983 
L 305.089721 -182.637025 
L 305.089973 -185.632066 
L 305.093709 -188.627107 
L 305.096934 -191.622149 
L 305.093746 -194.61719 
L 305.086881 -197.612231 
L 305.083002 -200.607273 
L 305.069477 -203.602314 
L 305.053352 -206.597355 
L 305.037384 -209.592397 
L 304.990221 -212.587438 
L 304.922901 -215.582479 
L 304.854795 -218.577521 
L 304.709885 -221.572562 
L 304.495771 -224.567603 
L 304.198774 -227.562645 
L 303.7111 -230.557686 
L 303.021343 -233.552727 
L 302.066339 -236.547769 
L 300.634304 -239.54281 
L 298.429076 -242.537851 
L 294.852306 -245.532893 
L 288.947725 -248.527934 
L 279.365438 -251.522975 
L 264.944496 -254.518017 
L 248.320703 -257.513058 
L 242.454999 -260.508099 
L 255.733385 -263.50314 
L 272.984711 -266.498182 
L 285.068277 -269.493223 
L 292.380257 -272.488264 
L 296.799372 -275.483306 
L 299.64422 -278.478347 
L 301.527544 -281.473388 
L 302.713065 -284.46843 
L 303.440865 -287.463471 
L 303.984528 -290.458512 
L 304.35387 -293.453554 
L 304.584428 -296.448595 
L 304.746482 -299.443636 
L 304.887678 -302.438678 
L 304.98111 -305.433719 
L 305.028976 -308.42876 
L 305.049647 -311.423802 
L 305.060636 -314.418843 
L 305.070356 -317.413884 
L 305.080545 -320.408926 
L 305.086005 -323.403967 
L 305.090864 -326.399008 
L 305.090142 -329.39405 
L 305.091508 -332.389091 
L 305.095007 -335.384132 
L 305.098058 -338.379174 
L 305.09817 -341.374215 
L 305.094688 -344.369256 
L 305.094302 -347.364298 
L 305.096977 -350.359339 
L 305.099372 -353.35438 
L 305.099124 -356.349421 
L 305.096834 -359.344463 
L 305.09778 -362.339504 
L 305.099713 -365.334545 
L 305.100287 -365.334545 
L 305.100287 -365.334545 
L 305.10222 -362.339504 
L 305.103166 -359.344463 
L 305.100876 -356.349421 
L 305.100628 -353.35438 
L 305.103023 -350.359339 
L 305.105698 -347.364298 
L 305.105312 -344.369256 
L 305.10183 -341.374215 
L 305.101942 -338.379174 
L 305.104993 -335.384132 
L 305.108492 -332.389091 
L 305.109858 -329.39405 
L 305.109136 -326.399008 
L 305.113995 -323.403967 
L 305.119455 -320.408926 
L 305.129644 -317.413884 
L 305.139364 -314.418843 
L 305.150353 -311.423802 
L 305.171024 -308.42876 
L 305.21889 -305.433719 
L 305.312322 -302.438678 
L 305.453518 -299.443636 
L 305.615572 -296.448595 
L 305.84613 -293.453554 
L 306.215472 -290.458512 
L 306.759135 -287.463471 
L 307.486935 -284.46843 
L 308.672456 -281.473388 
L 310.55578 -278.478347 
L 313.400628 -275.483306 
L 317.819743 -272.488264 
L 325.131723 -269.493223 
L 337.215289 -266.498182 
L 354.466615 -263.50314 
L 367.745001 -260.508099 
L 361.879297 -257.513058 
L 345.255504 -254.518017 
L 330.834562 -251.522975 
L 321.252275 -248.527934 
L 315.347694 -245.532893 
L 311.770924 -242.537851 
L 309.565696 -239.54281 
L 308.133661 -236.547769 
L 307.178657 -233.552727 
L 306.4889 -230.557686 
L 306.001226 -227.562645 
L 305.704229 -224.567603 
L 305.490115 -221.572562 
L 305.345205 -218.577521 
L 305.277099 -215.582479 
L 305.209779 -212.587438 
L 305.162616 -209.592397 
L 305.146648 -206.597355 
L 305.130523 -203.602314 
L 305.116998 -200.607273 
L 305.113119 -197.612231 
L 305.106254 -194.61719 
L 305.103066 -191.622149 
L 305.106291 -188.627107 
L 305.110027 -185.632066 
L 305.110279 -182.637025 
L 305.10773 -179.641983 
L 305.109011 -176.646942 
L 305.109692 -173.651901 
L 305.10324 -170.65686 
L 305.100256 -167.661818 
L 305.100415 -164.666777 
L 305.101718 -161.671736 
L 305.101047 -158.676694 
L 305.100093 -155.681653 
L 305.100001 -152.686612 
L 305.1 -149.69157 
L 305.1 -146.696529 
L 305.1 -143.701488 
L 305.1 -140.706446 
L 305.1 -137.711405 
L 305.1 -134.716364 
L 305.1 -131.721322 
L 305.1 -128.726281 
L 305.1 -125.73124 
L 305.1 -122.736198 
L 305.1 -119.741157 
L 305.1 -116.746116 
L 305.1 -113.751074 
L 305.1 -110.756033 
L 305.1 -107.760992 
L 305.1 -104.76595 
L 305.1 -101.770909 
L 305.1 -98.775868 
L 305.1 -95.780826 
L 305.1 -92.785785 
L 305.1 -89.790744 
L 305.1 -86.795702 
L 305.100012 -83.800661 
L 305.104416 -80.80562 
L 305.330474 -77.810579 
L 306.859479 -74.815537 
L 307.064919 -71.820496 
L 305.420999 -68.825455 
z
" id="m90e2108419" style="stroke:#4d4d4d;stroke-width:1.5;"/>
    </defs>
    <g clip-path="url(#p2c372703a0)">
     <use style="fill:#224fdf;stroke:#4d4d4d;stroke-width:1.5;" x="0" xlink:href="#m90e2108419" y="432"/>
    </g>
   </g>
   <g id="line2d_7">
    <path clip-path="url(#p2c372703a0)" d="M 137.7 189.806591 
L 137.7 154.653723 
" style="fill:none;stroke:#4d4d4d;stroke-linecap:round;stroke-width:1.5;"/>
   </g>
   <g id="line2d_8">
    <path clip-path="url(#p2c372703a0)" d="M 137.7 176.623345 
L 137.7 167.833434 
" style="fill:none;stroke:#4d4d4d;stroke-linecap:round;stroke-width:4.5;"/>
   </g>
   <g id="line2d_9">
    <path clip-path="url(#p2c372703a0)" d="M 305.1 191.770901 
L 305.1 153.124922 
" style="fill:none;stroke:#4d4d4d;stroke-linecap:round;stroke-width:1.5;"/>
   </g>
   <g id="line2d_10">
    <path clip-path="url(#p2c372703a0)" d="M 305.1 177.279278 
L 305.1 167.616686 
" style="fill:none;stroke:#4d4d4d;stroke-linecap:round;stroke-width:4.5;"/>
   </g>
   <g id="patch_3">
    <path d="M 54 378 
L 54 51.84 
" style="fill:none;stroke:#ffffff;stroke-linecap:square;stroke-linejoin:miter;stroke-width:0.8;"/>
   </g>
   <g id="patch_4">
    <path d="M 388.8 378 
L 388.8 51.84 
" style="fill:none;stroke:#ffffff;stroke-linecap:square;stroke-linejoin:miter;stroke-width:0.8;"/>
   </g>
   <g id="patch_5">
    <path d="M 54 378 
L 388.8 378 
" style="fill:none;stroke:#ffffff;stroke-linecap:square;stroke-linejoin:miter;stroke-width:0.8;"/>
   </g>
   <g id="patch_6">
    <path d="M 54 51.84 
L 388.8 51.84 
" style="fill:none;stroke:#ffffff;stroke-linecap:square;stroke-linejoin:miter;stroke-width:0.8;"/>
   </g>
   <g id="PathCollection_1">
    <defs>
     <path d="M 0 1.5 
C 0.397805 1.5 0.77937 1.341951 1.06066 1.06066 
C 1.341951 0.77937 1.5 0.397805 1.5 0 
C 1.5 -0.397805 1.341951 -0.77937 1.06066 -1.06066 
C 0.77937 -1.341951 0.397805 -1.5 0 -1.5 
C -0.397805 -1.5 -0.77937 -1.341951 -1.06066 -1.06066 
C -1.341951 -0.77937 -1.5 -0.397805 -1.5 0 
C -1.5 0.397805 -1.341951 0.77937 -1.06066 1.06066 
C -0.77937 1.341951 -0.397805 1.5 0 1.5 
z
" id="m03df63b78d" style="stroke:#4d4d4d;"/>
    </defs>
    <g clip-path="url(#p2c372703a0)">
     <use style="fill:#ffffff;stroke:#4d4d4d;" x="137.7" xlink:href="#m03df63b78d" y="172.024063"/>
    </g>
   </g>
   <g id="PathCollection_2">
    <g clip-path="url(#p2c372703a0)">
     <use style="fill:#ffffff;stroke:#4d4d4d;" x="305.1" xlink:href="#m03df63b78d" y="172.275106"/>
    </g>
   </g>
  </g>
 </g>
 <defs>
  <clipPath id="p2c372703a0">
   <rect height="326.16" width="334.8" x="54" y="51.84"/>
  </clipPath>
 </defs>
</svg>
