<?xml version="1.0" encoding="utf-8" standalone="no"?>
<!DOCTYPE svg PUBLIC "-//W3C//DTD SVG 1.1//EN"
  "http://www.w3.org/Graphics/SVG/1.1/DTD/svg11.dtd">
<!-- Created with matplotlib (http://matplotlib.org/) -->
<svg height="432pt" version="1.1" viewBox="0 0 648 432" width="648pt" xmlns="http://www.w3.org/2000/svg" xmlns:xlink="http://www.w3.org/1999/xlink">
 <defs>
  <style type="text/css">
*{stroke-linecap:butt;stroke-linejoin:round;}
  </style>
 </defs>
 <g id="figure_1">
  <g id="patch_1">
   <path d="M 0 432 
L 648 432 
L 648 0 
L 0 0 
z
" style="fill:#ffffff;"/>
  </g>
  <g id="axes_1">
   <g id="patch_2">
    <path d="M 81 378 
L 583.2 378 
L 583.2 51.84 
L 81 51.84 
z
" style="fill:#e6e6e6;"/>
   </g>
   <g id="matplotlib.axis_1">
    <g id="xtick_1">
     <g id="text_1">
      <!-- 1 -->
      <defs>
       <path d="M 12.40625 8.296875 
L 28.515625 8.296875 
L 28.515625 63.921875 
L 10.984375 60.40625 
L 10.984375 69.390625 
L 28.421875 72.90625 
L 38.28125 72.90625 
L 38.28125 8.296875 
L 54.390625 8.296875 
L 54.390625 0 
L 12.40625 0 
z
" id="DejaVuSans-31"/>
      </defs>
      <g style="fill:#262626;" transform="translate(161.51875 392.598437)scale(0.1 -0.1)">
       <use xlink:href="#DejaVuSans-31"/>
      </g>
     </g>
    </g>
    <g id="xtick_2">
     <g id="text_2">
      <!-- 2 -->
      <defs>
       <path d="M 19.1875 8.296875 
L 53.609375 8.296875 
L 53.609375 0 
L 7.328125 0 
L 7.328125 8.296875 
Q 12.9375 14.109375 22.625 23.890625 
Q 32.328125 33.6875 34.8125 36.53125 
Q 39.546875 41.84375 41.421875 45.53125 
Q 43.3125 49.21875 43.3125 52.78125 
Q 43.3125 58.59375 39.234375 62.25 
Q 35.15625 65.921875 28.609375 65.921875 
Q 23.96875 65.921875 18.8125 64.3125 
Q 13.671875 62.703125 7.8125 59.421875 
L 7.8125 69.390625 
Q 13.765625 71.78125 18.9375 73 
Q 24.125 74.21875 28.421875 74.21875 
Q 39.75 74.21875 46.484375 68.546875 
Q 53.21875 62.890625 53.21875 53.421875 
Q 53.21875 48.921875 51.53125 44.890625 
Q 49.859375 40.875 45.40625 35.40625 
Q 44.1875 33.984375 37.640625 27.21875 
Q 31.109375 20.453125 19.1875 8.296875 
z
" id="DejaVuSans-32"/>
      </defs>
      <g style="fill:#262626;" transform="translate(328.91875 392.598437)scale(0.1 -0.1)">
       <use xlink:href="#DejaVuSans-32"/>
      </g>
     </g>
    </g>
    <g id="xtick_3">
     <g id="text_3">
      <!-- 3 -->
      <defs>
       <path d="M 40.578125 39.3125 
Q 47.65625 37.796875 51.625 33 
Q 55.609375 28.21875 55.609375 21.1875 
Q 55.609375 10.40625 48.1875 4.484375 
Q 40.765625 -1.421875 27.09375 -1.421875 
Q 22.515625 -1.421875 17.65625 -0.515625 
Q 12.796875 0.390625 7.625 2.203125 
L 7.625 11.71875 
Q 11.71875 9.328125 16.59375 8.109375 
Q 21.484375 6.890625 26.8125 6.890625 
Q 36.078125 6.890625 40.9375 10.546875 
Q 45.796875 14.203125 45.796875 21.1875 
Q 45.796875 27.640625 41.28125 31.265625 
Q 36.765625 34.90625 28.71875 34.90625 
L 20.21875 34.90625 
L 20.21875 43.015625 
L 29.109375 43.015625 
Q 36.375 43.015625 40.234375 45.921875 
Q 44.09375 48.828125 44.09375 54.296875 
Q 44.09375 59.90625 40.109375 62.90625 
Q 36.140625 65.921875 28.71875 65.921875 
Q 24.65625 65.921875 20.015625 65.03125 
Q 15.375 64.15625 9.8125 62.3125 
L 9.8125 71.09375 
Q 15.4375 72.65625 20.34375 73.4375 
Q 25.25 74.21875 29.59375 74.21875 
Q 40.828125 74.21875 47.359375 69.109375 
Q 53.90625 64.015625 53.90625 55.328125 
Q 53.90625 49.265625 50.4375 45.09375 
Q 46.96875 40.921875 40.578125 39.3125 
z
" id="DejaVuSans-33"/>
      </defs>
      <g style="fill:#262626;" transform="translate(496.31875 392.598437)scale(0.1 -0.1)">
       <use xlink:href="#DejaVuSans-33"/>
      </g>
     </g>
    </g>
    <g id="text_4">
     <!-- feature_2 -->
     <defs>
      <path d="M 37.109375 75.984375 
L 37.109375 68.5 
L 28.515625 68.5 
Q 23.6875 68.5 21.796875 66.546875 
Q 19.921875 64.59375 19.921875 59.515625 
L 19.921875 54.6875 
L 34.71875 54.6875 
L 34.71875 47.703125 
L 19.921875 47.703125 
L 19.921875 0 
L 10.890625 0 
L 10.890625 47.703125 
L 2.296875 47.703125 
L 2.296875 54.6875 
L 10.890625 54.6875 
L 10.890625 58.5 
Q 10.890625 67.625 15.140625 71.796875 
Q 19.390625 75.984375 28.609375 75.984375 
z
" id="DejaVuSans-66"/>
      <path d="M 56.203125 29.59375 
L 56.203125 25.203125 
L 14.890625 25.203125 
Q 15.484375 15.921875 20.484375 11.0625 
Q 25.484375 6.203125 34.421875 6.203125 
Q 39.59375 6.203125 44.453125 7.46875 
Q 49.3125 8.734375 54.109375 11.28125 
L 54.109375 2.78125 
Q 49.265625 0.734375 44.1875 -0.34375 
Q 39.109375 -1.421875 33.890625 -1.421875 
Q 20.796875 -1.421875 13.15625 6.1875 
Q 5.515625 13.8125 5.515625 26.8125 
Q 5.515625 40.234375 12.765625 48.109375 
Q 20.015625 56 32.328125 56 
Q 43.359375 56 49.78125 48.890625 
Q 56.203125 41.796875 56.203125 29.59375 
z
M 47.21875 32.234375 
Q 47.125 39.59375 43.09375 43.984375 
Q 39.0625 48.390625 32.421875 48.390625 
Q 24.90625 48.390625 20.390625 44.140625 
Q 15.875 39.890625 15.1875 32.171875 
z
" id="DejaVuSans-65"/>
      <path d="M 34.28125 27.484375 
Q 23.390625 27.484375 19.1875 25 
Q 14.984375 22.515625 14.984375 16.5 
Q 14.984375 11.71875 18.140625 8.90625 
Q 21.296875 6.109375 26.703125 6.109375 
Q 34.1875 6.109375 38.703125 11.40625 
Q 43.21875 16.703125 43.21875 25.484375 
L 43.21875 27.484375 
z
M 52.203125 31.203125 
L 52.203125 0 
L 43.21875 0 
L 43.21875 8.296875 
Q 40.140625 3.328125 35.546875 0.953125 
Q 30.953125 -1.421875 24.3125 -1.421875 
Q 15.921875 -1.421875 10.953125 3.296875 
Q 6 8.015625 6 15.921875 
Q 6 25.140625 12.171875 29.828125 
Q 18.359375 34.515625 30.609375 34.515625 
L 43.21875 34.515625 
L 43.21875 35.40625 
Q 43.21875 41.609375 39.140625 45 
Q 35.0625 48.390625 27.6875 48.390625 
Q 23 48.390625 18.546875 47.265625 
Q 14.109375 46.140625 10.015625 43.890625 
L 10.015625 52.203125 
Q 14.9375 54.109375 19.578125 55.046875 
Q 24.21875 56 28.609375 56 
Q 40.484375 56 46.34375 49.84375 
Q 52.203125 43.703125 52.203125 31.203125 
z
" id="DejaVuSans-61"/>
      <path d="M 18.3125 70.21875 
L 18.3125 54.6875 
L 36.8125 54.6875 
L 36.8125 47.703125 
L 18.3125 47.703125 
L 18.3125 18.015625 
Q 18.3125 11.328125 20.140625 9.421875 
Q 21.96875 7.515625 27.59375 7.515625 
L 36.8125 7.515625 
L 36.8125 0 
L 27.59375 0 
Q 17.1875 0 13.234375 3.875 
Q 9.28125 7.765625 9.28125 18.015625 
L 9.28125 47.703125 
L 2.6875 47.703125 
L 2.6875 54.6875 
L 9.28125 54.6875 
L 9.28125 70.21875 
z
" id="DejaVuSans-74"/>
      <path d="M 8.5 21.578125 
L 8.5 54.6875 
L 17.484375 54.6875 
L 17.484375 21.921875 
Q 17.484375 14.15625 20.5 10.265625 
Q 23.53125 6.390625 29.59375 6.390625 
Q 36.859375 6.390625 41.078125 11.03125 
Q 45.3125 15.671875 45.3125 23.6875 
L 45.3125 54.6875 
L 54.296875 54.6875 
L 54.296875 0 
L 45.3125 0 
L 45.3125 8.40625 
Q 42.046875 3.421875 37.71875 1 
Q 33.40625 -1.421875 27.6875 -1.421875 
Q 18.265625 -1.421875 13.375 4.4375 
Q 8.5 10.296875 8.5 21.578125 
z
M 31.109375 56 
z
" id="DejaVuSans-75"/>
      <path d="M 41.109375 46.296875 
Q 39.59375 47.171875 37.8125 47.578125 
Q 36.03125 48 33.890625 48 
Q 26.265625 48 22.1875 43.046875 
Q 18.109375 38.09375 18.109375 28.8125 
L 18.109375 0 
L 9.078125 0 
L 9.078125 54.6875 
L 18.109375 54.6875 
L 18.109375 46.1875 
Q 20.953125 51.171875 25.484375 53.578125 
Q 30.03125 56 36.53125 56 
Q 37.453125 56 38.578125 55.875 
Q 39.703125 55.765625 41.0625 55.515625 
z
" id="DejaVuSans-72"/>
      <path d="M 50.984375 -16.609375 
L 50.984375 -23.578125 
L -0.984375 -23.578125 
L -0.984375 -16.609375 
z
" id="DejaVuSans-5f"/>
     </defs>
     <g style="fill:#262626;" transform="translate(308.258594 406.276563)scale(0.1 -0.1)">
      <use xlink:href="#DejaVuSans-66"/>
      <use x="35.205078" xlink:href="#DejaVuSans-65"/>
      <use x="96.728516" xlink:href="#DejaVuSans-61"/>
      <use x="158.007812" xlink:href="#DejaVuSans-74"/>
      <use x="197.216797" xlink:href="#DejaVuSans-75"/>
      <use x="260.595703" xlink:href="#DejaVuSans-72"/>
      <use x="301.677734" xlink:href="#DejaVuSans-65"/>
      <use x="363.201172" xlink:href="#DejaVuSans-5f"/>
      <use x="413.201172" xlink:href="#DejaVuSans-32"/>
     </g>
    </g>
   </g>
   <g id="matplotlib.axis_2">
    <g id="ytick_1">
     <g id="line2d_1">
      <path clip-path="url(#pb39b662819)" d="M 81 339.370245 
L 583.2 339.370245 
" style="fill:none;stroke:#ffffff;stroke-linecap:round;stroke-width:0.8;"/>
     </g>
     <g id="text_5">
      <!-- −30 -->
      <defs>
       <path d="M 10.59375 35.5 
L 73.1875 35.5 
L 73.1875 27.203125 
L 10.59375 27.203125 
z
" id="DejaVuSans-2212"/>
       <path d="M 31.78125 66.40625 
Q 24.171875 66.40625 20.328125 58.90625 
Q 16.5 51.421875 16.5 36.375 
Q 16.5 21.390625 20.328125 13.890625 
Q 24.171875 6.390625 31.78125 6.390625 
Q 39.453125 6.390625 43.28125 13.890625 
Q 47.125 21.390625 47.125 36.375 
Q 47.125 51.421875 43.28125 58.90625 
Q 39.453125 66.40625 31.78125 66.40625 
z
M 31.78125 74.21875 
Q 44.046875 74.21875 50.515625 64.515625 
Q 56.984375 54.828125 56.984375 36.375 
Q 56.984375 17.96875 50.515625 8.265625 
Q 44.046875 -1.421875 31.78125 -1.421875 
Q 19.53125 -1.421875 13.0625 8.265625 
Q 6.59375 17.96875 6.59375 36.375 
Q 6.59375 54.828125 13.0625 64.515625 
Q 19.53125 74.21875 31.78125 74.21875 
z
" id="DejaVuSans-30"/>
      </defs>
      <g style="fill:#262626;" transform="translate(52.895313 343.169464)scale(0.1 -0.1)">
       <use xlink:href="#DejaVuSans-2212"/>
       <use x="83.789062" xlink:href="#DejaVuSans-33"/>
       <use x="147.412109" xlink:href="#DejaVuSans-30"/>
      </g>
     </g>
    </g>
    <g id="ytick_2">
     <g id="line2d_2">
      <path clip-path="url(#pb39b662819)" d="M 81 283.443528 
L 583.2 283.443528 
" style="fill:none;stroke:#ffffff;stroke-linecap:round;stroke-width:0.8;"/>
     </g>
     <g id="text_6">
      <!-- −20 -->
      <g style="fill:#262626;" transform="translate(52.895313 287.242747)scale(0.1 -0.1)">
       <use xlink:href="#DejaVuSans-2212"/>
       <use x="83.789062" xlink:href="#DejaVuSans-32"/>
       <use x="147.412109" xlink:href="#DejaVuSans-30"/>
      </g>
     </g>
    </g>
    <g id="ytick_3">
     <g id="line2d_3">
      <path clip-path="url(#pb39b662819)" d="M 81 227.516811 
L 583.2 227.516811 
" style="fill:none;stroke:#ffffff;stroke-linecap:round;stroke-width:0.8;"/>
     </g>
     <g id="text_7">
      <!-- −10 -->
      <g style="fill:#262626;" transform="translate(52.895313 231.31603)scale(0.1 -0.1)">
       <use xlink:href="#DejaVuSans-2212"/>
       <use x="83.789062" xlink:href="#DejaVuSans-31"/>
       <use x="147.412109" xlink:href="#DejaVuSans-30"/>
      </g>
     </g>
    </g>
    <g id="ytick_4">
     <g id="line2d_4">
      <path clip-path="url(#pb39b662819)" d="M 81 171.590094 
L 583.2 171.590094 
" style="fill:none;stroke:#ffffff;stroke-linecap:round;stroke-width:0.8;"/>
     </g>
     <g id="text_8">
      <!-- 0 -->
      <g style="fill:#262626;" transform="translate(67.6375 175.389312)scale(0.1 -0.1)">
       <use xlink:href="#DejaVuSans-30"/>
      </g>
     </g>
    </g>
    <g id="ytick_5">
     <g id="line2d_5">
      <path clip-path="url(#pb39b662819)" d="M 81 115.663376 
L 583.2 115.663376 
" style="fill:none;stroke:#ffffff;stroke-linecap:round;stroke-width:0.8;"/>
     </g>
     <g id="text_9">
      <!-- 10 -->
      <g style="fill:#262626;" transform="translate(61.275 119.462595)scale(0.1 -0.1)">
       <use xlink:href="#DejaVuSans-31"/>
       <use x="63.623047" xlink:href="#DejaVuSans-30"/>
      </g>
     </g>
    </g>
    <g id="ytick_6">
     <g id="line2d_6">
      <path clip-path="url(#pb39b662819)" d="M 81 59.736659 
L 583.2 59.736659 
" style="fill:none;stroke:#ffffff;stroke-linecap:round;stroke-width:0.8;"/>
     </g>
     <g id="text_10">
      <!-- 20 -->
      <g style="fill:#262626;" transform="translate(61.275 63.535878)scale(0.1 -0.1)">
       <use xlink:href="#DejaVuSans-32"/>
       <use x="63.623047" xlink:href="#DejaVuSans-30"/>
      </g>
     </g>
    </g>
    <g id="text_11">
     <!-- target -->
     <defs>
      <path d="M 45.40625 27.984375 
Q 45.40625 37.75 41.375 43.109375 
Q 37.359375 48.484375 30.078125 48.484375 
Q 22.859375 48.484375 18.828125 43.109375 
Q 14.796875 37.75 14.796875 27.984375 
Q 14.796875 18.265625 18.828125 12.890625 
Q 22.859375 7.515625 30.078125 7.515625 
Q 37.359375 7.515625 41.375 12.890625 
Q 45.40625 18.265625 45.40625 27.984375 
z
M 54.390625 6.78125 
Q 54.390625 -7.171875 48.1875 -13.984375 
Q 42 -20.796875 29.203125 -20.796875 
Q 24.46875 -20.796875 20.265625 -20.09375 
Q 16.0625 -19.390625 12.109375 -17.921875 
L 12.109375 -9.1875 
Q 16.0625 -11.328125 19.921875 -12.34375 
Q 23.78125 -13.375 27.78125 -13.375 
Q 36.625 -13.375 41.015625 -8.765625 
Q 45.40625 -4.15625 45.40625 5.171875 
L 45.40625 9.625 
Q 42.625 4.78125 38.28125 2.390625 
Q 33.9375 0 27.875 0 
Q 17.828125 0 11.671875 7.65625 
Q 5.515625 15.328125 5.515625 27.984375 
Q 5.515625 40.671875 11.671875 48.328125 
Q 17.828125 56 27.875 56 
Q 33.9375 56 38.28125 53.609375 
Q 42.625 51.21875 45.40625 46.390625 
L 45.40625 54.6875 
L 54.390625 54.6875 
z
" id="DejaVuSans-67"/>
     </defs>
     <g style="fill:#262626;" transform="translate(46.815625 230.209844)rotate(-90)scale(0.1 -0.1)">
      <use xlink:href="#DejaVuSans-74"/>
      <use x="39.208984" xlink:href="#DejaVuSans-61"/>
      <use x="100.488281" xlink:href="#DejaVuSans-72"/>
      <use x="141.585938" xlink:href="#DejaVuSans-67"/>
      <use x="205.0625" xlink:href="#DejaVuSans-65"/>
      <use x="266.585938" xlink:href="#DejaVuSans-74"/>
     </g>
    </g>
   </g>
   <g id="PolyCollection_1">
    <defs>
     <path d="M 165.005353 -70.173464 
L 164.394647 -70.173464 
L 162.886042 -73.154889 
L 162.907988 -76.136314 
L 164.405596 -79.117739 
L 164.691957 -82.099164 
L 164.699963 -85.08059 
L 164.7 -88.062015 
L 164.7 -91.04344 
L 164.7 -94.024865 
L 164.7 -97.00629 
L 164.7 -99.987715 
L 164.7 -102.96914 
L 164.7 -105.950565 
L 164.7 -108.93199 
L 164.7 -111.913415 
L 164.7 -114.89484 
L 164.7 -117.876265 
L 164.7 -120.85769 
L 164.7 -123.839115 
L 164.7 -126.82054 
L 164.7 -129.801965 
L 164.7 -132.783391 
L 164.7 -135.764816 
L 164.7 -138.746241 
L 164.7 -141.727666 
L 164.7 -144.709091 
L 164.7 -147.690516 
L 164.7 -150.671941 
L 164.699999 -153.653366 
L 164.699887 -156.634791 
L 164.698069 -159.616216 
L 164.693901 -162.597641 
L 164.696133 -165.579066 
L 164.698557 -168.560491 
L 164.696219 -171.541916 
L 164.696423 -174.523341 
L 164.696011 -177.504767 
L 164.693489 -180.486192 
L 164.692963 -183.467617 
L 164.693926 -186.449042 
L 164.695441 -189.430467 
L 164.695062 -192.411892 
L 164.685829 -195.393317 
L 164.685289 -198.374742 
L 164.687145 -201.356167 
L 164.671487 -204.337592 
L 164.653786 -207.319017 
L 164.631323 -210.300442 
L 164.605343 -213.281867 
L 164.571804 -216.263292 
L 164.500696 -219.244717 
L 164.378028 -222.226142 
L 164.203847 -225.207568 
L 163.929012 -228.188993 
L 163.490258 -231.170418 
L 162.932598 -234.151843 
L 162.159679 -237.133268 
L 160.866409 -240.114693 
L 158.927512 -243.096118 
L 155.814854 -246.077543 
L 150.399469 -249.058968 
L 140.684512 -252.040393 
L 125.204369 -255.021818 
L 105.991759 -258.003243 
L 97.74 -260.984668 
L 112.161227 -263.966093 
L 131.859455 -266.947518 
L 145.410511 -269.928943 
L 153.270387 -272.910369 
L 157.50254 -275.891794 
L 159.979567 -278.873219 
L 161.634319 -281.854644 
L 162.749571 -284.836069 
L 163.37392 -287.817494 
L 163.793722 -290.798919 
L 164.116282 -293.780344 
L 164.308053 -296.761769 
L 164.450139 -299.743194 
L 164.555027 -302.724619 
L 164.617053 -305.706044 
L 164.65336 -308.687469 
L 164.662501 -311.668894 
L 164.668055 -314.650319 
L 164.675075 -317.631744 
L 164.684446 -320.61317 
L 164.688225 -323.594595 
L 164.689926 -326.57602 
L 164.694607 -329.557445 
L 164.695557 -332.53887 
L 164.694687 -335.520295 
L 164.69692 -338.50172 
L 164.698689 -341.483145 
L 164.697657 -344.46457 
L 164.697916 -347.445995 
L 164.697795 -350.42742 
L 164.699298 -353.408845 
L 164.698715 -356.39027 
L 164.696018 -359.371695 
L 164.697367 -362.35312 
L 164.699646 -365.334545 
L 164.700354 -365.334545 
L 164.700354 -365.334545 
L 164.702633 -362.35312 
L 164.703982 -359.371695 
L 164.701285 -356.39027 
L 164.700702 -353.408845 
L 164.702205 -350.42742 
L 164.702084 -347.445995 
L 164.702343 -344.46457 
L 164.701311 -341.483145 
L 164.70308 -338.50172 
L 164.705313 -335.520295 
L 164.704443 -332.53887 
L 164.705393 -329.557445 
L 164.710074 -326.57602 
L 164.711775 -323.594595 
L 164.715554 -320.61317 
L 164.724925 -317.631744 
L 164.731945 -314.650319 
L 164.737499 -311.668894 
L 164.74664 -308.687469 
L 164.782947 -305.706044 
L 164.844973 -302.724619 
L 164.949861 -299.743194 
L 165.091947 -296.761769 
L 165.283718 -293.780344 
L 165.606278 -290.798919 
L 166.02608 -287.817494 
L 166.650429 -284.836069 
L 167.765681 -281.854644 
L 169.420433 -278.873219 
L 171.89746 -275.891794 
L 176.129613 -272.910369 
L 183.989489 -269.928943 
L 197.540545 -266.947518 
L 217.238773 -263.966093 
L 231.66 -260.984668 
L 223.408241 -258.003243 
L 204.195631 -255.021818 
L 188.715488 -252.040393 
L 179.000531 -249.058968 
L 173.585146 -246.077543 
L 170.472488 -243.096118 
L 168.533591 -240.114693 
L 167.240321 -237.133268 
L 166.467402 -234.151843 
L 165.909742 -231.170418 
L 165.470988 -228.188993 
L 165.196153 -225.207568 
L 165.021972 -222.226142 
L 164.899304 -219.244717 
L 164.828196 -216.263292 
L 164.794657 -213.281867 
L 164.768677 -210.300442 
L 164.746214 -207.319017 
L 164.728513 -204.337592 
L 164.712855 -201.356167 
L 164.714711 -198.374742 
L 164.714171 -195.393317 
L 164.704938 -192.411892 
L 164.704559 -189.430467 
L 164.706074 -186.449042 
L 164.707037 -183.467617 
L 164.706511 -180.486192 
L 164.703989 -177.504767 
L 164.703577 -174.523341 
L 164.703781 -171.541916 
L 164.701443 -168.560491 
L 164.703867 -165.579066 
L 164.706099 -162.597641 
L 164.701931 -159.616216 
L 164.700113 -156.634791 
L 164.700001 -153.653366 
L 164.7 -150.671941 
L 164.7 -147.690516 
L 164.7 -144.709091 
L 164.7 -141.727666 
L 164.7 -138.746241 
L 164.7 -135.764816 
L 164.7 -132.783391 
L 164.7 -129.801965 
L 164.7 -126.82054 
L 164.7 -123.839115 
L 164.7 -120.85769 
L 164.7 -117.876265 
L 164.7 -114.89484 
L 164.7 -111.913415 
L 164.7 -108.93199 
L 164.7 -105.950565 
L 164.7 -102.96914 
L 164.7 -99.987715 
L 164.7 -97.00629 
L 164.7 -94.024865 
L 164.7 -91.04344 
L 164.7 -88.062015 
L 164.700037 -85.08059 
L 164.708043 -82.099164 
L 164.994404 -79.117739 
L 166.492012 -76.136314 
L 166.513958 -73.154889 
L 165.005353 -70.173464 
z
" id="macd3172b1f" style="stroke:#4d4d4d;stroke-width:1.5;"/>
    </defs>
    <g clip-path="url(#pb39b662819)">
     <use style="fill:#224fdf;stroke:#4d4d4d;stroke-width:1.5;" x="0" xlink:href="#macd3172b1f" y="432"/>
    </g>
   </g>
   <g id="PolyCollection_2">
    <defs>
     <path d="M 332.347131 -70.396642 
L 331.852869 -70.396642 
L 330.626553 -73.240314 
L 330.660622 -76.083986 
L 331.869618 -78.927658 
L 332.093958 -81.771329 
L 332.099974 -84.615001 
L 332.1 -87.458673 
L 332.1 -90.302344 
L 332.1 -93.146016 
L 332.1 -95.989688 
L 332.1 -98.833359 
L 332.1 -101.677031 
L 332.1 -104.520703 
L 332.1 -107.364374 
L 332.1 -110.208046 
L 332.1 -113.051718 
L 332.1 -115.895389 
L 332.1 -118.739061 
L 332.1 -121.582733 
L 332.1 -124.426404 
L 332.1 -127.270076 
L 332.1 -130.113748 
L 332.1 -132.957419 
L 332.1 -135.801091 
L 332.1 -138.644763 
L 332.1 -141.488434 
L 332.1 -144.332106 
L 332.1 -147.175778 
L 332.1 -150.019449 
L 332.1 -152.863121 
L 332.099964 -155.706793 
L 332.099225 -158.550464 
L 332.097301 -161.394136 
L 332.098461 -164.237808 
L 332.099844 -167.081479 
L 332.099374 -169.925151 
L 332.093813 -172.768823 
L 332.086743 -175.612494 
L 332.09091 -178.456166 
L 332.090803 -181.299838 
L 332.089381 -184.143509 
L 332.089658 -186.987181 
L 332.092203 -189.830853 
L 332.094918 -192.674524 
L 332.096789 -195.518196 
L 332.093271 -198.361868 
L 332.083744 -201.20554 
L 332.066163 -204.049211 
L 332.055099 -206.892883 
L 332.044748 -209.736555 
L 332.002005 -212.580226 
L 331.939757 -215.423898 
L 331.88171 -218.26757 
L 331.783521 -221.111241 
L 331.593283 -223.954913 
L 331.325466 -226.798585 
L 330.963934 -229.642256 
L 330.474954 -232.485928 
L 329.768847 -235.3296 
L 328.69534 -238.173271 
L 327.111649 -241.016943 
L 324.580467 -243.860615 
L 320.667086 -246.704286 
L 314.30909 -249.547958 
L 304.357122 -252.39163 
L 290.553343 -255.235301 
L 275.520272 -258.078973 
L 270.939239 -260.922645 
L 283.187965 -263.766316 
L 298.940576 -266.609988 
L 310.877099 -269.45366 
L 318.35854 -272.297331 
L 322.771237 -275.141003 
L 325.826221 -277.984675 
L 327.888823 -280.828346 
L 329.334593 -283.672018 
L 330.155962 -286.51569 
L 330.725976 -289.359361 
L 331.130569 -292.203033 
L 331.439281 -295.046705 
L 331.629554 -297.890376 
L 331.779247 -300.734048 
L 331.920024 -303.57772 
L 331.998037 -306.421391 
L 332.026882 -309.265063 
L 332.049947 -312.108735 
L 332.073375 -314.952407 
L 332.079426 -317.796078 
L 332.083589 -320.63975 
L 332.091975 -323.483422 
L 332.095043 -326.327093 
L 332.09027 -329.170765 
L 332.090732 -332.014437 
L 332.093721 -334.858108 
L 332.096358 -337.70178 
L 332.098062 -340.545452 
L 332.09362 -343.389123 
L 332.091332 -346.232795 
L 332.096188 -349.076467 
L 332.099551 -351.920138 
L 332.100449 -351.920138 
L 332.100449 -351.920138 
L 332.103812 -349.076467 
L 332.108668 -346.232795 
L 332.10638 -343.389123 
L 332.101938 -340.545452 
L 332.103642 -337.70178 
L 332.106279 -334.858108 
L 332.109268 -332.014437 
L 332.10973 -329.170765 
L 332.104957 -326.327093 
L 332.108025 -323.483422 
L 332.116411 -320.63975 
L 332.120574 -317.796078 
L 332.126625 -314.952407 
L 332.150053 -312.108735 
L 332.173118 -309.265063 
L 332.201963 -306.421391 
L 332.279976 -303.57772 
L 332.420753 -300.734048 
L 332.570446 -297.890376 
L 332.760719 -295.046705 
L 333.069431 -292.203033 
L 333.474024 -289.359361 
L 334.044038 -286.51569 
L 334.865407 -283.672018 
L 336.311177 -280.828346 
L 338.373779 -277.984675 
L 341.428763 -275.141003 
L 345.84146 -272.297331 
L 353.322901 -269.45366 
L 365.259424 -266.609988 
L 381.012035 -263.766316 
L 393.260761 -260.922645 
L 388.679728 -258.078973 
L 373.646657 -255.235301 
L 359.842878 -252.39163 
L 349.89091 -249.547958 
L 343.532914 -246.704286 
L 339.619533 -243.860615 
L 337.088351 -241.016943 
L 335.50466 -238.173271 
L 334.431153 -235.3296 
L 333.725046 -232.485928 
L 333.236066 -229.642256 
L 332.874534 -226.798585 
L 332.606717 -223.954913 
L 332.416479 -221.111241 
L 332.31829 -218.26757 
L 332.260243 -215.423898 
L 332.197995 -212.580226 
L 332.155252 -209.736555 
L 332.144901 -206.892883 
L 332.133837 -204.049211 
L 332.116256 -201.20554 
L 332.106729 -198.361868 
L 332.103211 -195.518196 
L 332.105082 -192.674524 
L 332.107797 -189.830853 
L 332.110342 -186.987181 
L 332.110619 -184.143509 
L 332.109197 -181.299838 
L 332.10909 -178.456166 
L 332.113257 -175.612494 
L 332.106187 -172.768823 
L 332.100626 -169.925151 
L 332.100156 -167.081479 
L 332.101539 -164.237808 
L 332.102699 -161.394136 
L 332.100775 -158.550464 
L 332.100036 -155.706793 
L 332.1 -152.863121 
L 332.1 -150.019449 
L 332.1 -147.175778 
L 332.1 -144.332106 
L 332.1 -141.488434 
L 332.1 -138.644763 
L 332.1 -135.801091 
L 332.1 -132.957419 
L 332.1 -130.113748 
L 332.1 -127.270076 
L 332.1 -124.426404 
L 332.1 -121.582733 
L 332.1 -118.739061 
L 332.1 -115.895389 
L 332.1 -113.051718 
L 332.1 -110.208046 
L 332.1 -107.364374 
L 332.1 -104.520703 
L 332.1 -101.677031 
L 332.1 -98.833359 
L 332.1 -95.989688 
L 332.1 -93.146016 
L 332.1 -90.302344 
L 332.1 -87.458673 
L 332.100026 -84.615001 
L 332.106042 -81.771329 
L 332.330382 -78.927658 
L 333.539378 -76.083986 
L 333.573447 -73.240314 
L 332.347131 -70.396642 
z
" id="m6f619dfa51" style="stroke:#4d4d4d;stroke-width:1.5;"/>
    </defs>
    <g clip-path="url(#pb39b662819)">
     <use style="fill:#224fdf;stroke:#4d4d4d;stroke-width:1.5;" x="0" xlink:href="#m6f619dfa51" y="432"/>
    </g>
   </g>
   <g id="PolyCollection_3">
    <defs>
     <path d="M 499.79165 -68.825455 
L 499.20835 -68.825455 
L 498.261349 -71.57345 
L 497.356787 -74.321445 
L 497.989188 -77.069441 
L 499.066105 -79.817436 
L 499.449232 -82.565431 
L 499.49758 -85.313427 
L 499.499953 -88.061422 
L 499.5 -90.809418 
L 499.5 -93.557413 
L 499.5 -96.305408 
L 499.5 -99.053404 
L 499.5 -101.801399 
L 499.5 -104.549395 
L 499.5 -107.29739 
L 499.5 -110.045385 
L 499.5 -112.793381 
L 499.5 -115.541376 
L 499.5 -118.289372 
L 499.5 -121.037367 
L 499.5 -123.785362 
L 499.5 -126.533358 
L 499.5 -129.281353 
L 499.5 -132.029348 
L 499.5 -134.777344 
L 499.5 -137.525339 
L 499.5 -140.273335 
L 499.5 -143.02133 
L 499.5 -145.769325 
L 499.5 -148.517321 
L 499.5 -151.265316 
L 499.5 -154.013312 
L 499.5 -156.761307 
L 499.5 -159.509302 
L 499.5 -162.257298 
L 499.5 -165.005293 
L 499.5 -167.753289 
L 499.5 -170.501284 
L 499.499997 -173.249279 
L 499.499937 -175.997275 
L 499.499381 -178.74527 
L 499.497529 -181.493265 
L 499.495982 -184.241261 
L 499.497326 -186.989256 
L 499.49906 -189.737252 
L 499.498145 -192.485247 
L 499.492725 -195.233242 
L 499.48311 -197.981238 
L 499.474767 -200.729233 
L 499.467326 -203.477229 
L 499.458833 -206.225224 
L 499.456228 -208.973219 
L 499.44694 -211.721215 
L 499.40817 -214.46921 
L 499.345879 -217.217206 
L 499.26553 -219.965201 
L 499.142182 -222.713196 
L 498.95371 -225.461192 
L 498.68351 -228.209187 
L 498.275983 -230.957182 
L 497.675626 -233.705178 
L 496.888408 -236.453173 
L 495.762043 -239.201169 
L 493.984375 -241.949164 
L 491.234952 -244.697159 
L 486.852699 -247.445155 
L 479.869309 -250.19315 
L 469.312424 -252.941146 
L 455.516842 -255.689141 
L 442.995827 -258.437136 
L 440.442605 -261.185132 
L 450.436237 -263.933127 
L 465.096796 -266.681122 
L 477.153137 -269.429118 
L 485.028925 -272.177113 
L 490.054998 -274.925109 
L 493.314936 -277.673104 
L 495.350397 -280.421099 
L 496.622231 -283.169095 
L 497.481296 -285.91709 
L 498.134747 -288.665086 
L 498.593886 -291.413081 
L 498.873559 -294.161076 
L 499.069212 -296.909072 
L 499.21801 -299.657067 
L 499.329249 -302.405063 
L 499.400972 -305.153058 
L 499.438547 -307.901053 
L 499.456656 -310.649049 
L 499.464575 -313.397044 
L 499.473366 -316.145039 
L 499.483285 -318.893035 
L 499.485017 -321.64103 
L 499.48526 -324.389026 
L 499.491866 -327.137021 
L 499.497135 -329.885016 
L 499.496945 -332.633012 
L 499.49599 -335.381007 
L 499.497689 -338.129003 
L 499.499456 -340.876998 
L 499.500544 -340.876998 
L 499.500544 -340.876998 
L 499.502311 -338.129003 
L 499.50401 -335.381007 
L 499.503055 -332.633012 
L 499.502865 -329.885016 
L 499.508134 -327.137021 
L 499.51474 -324.389026 
L 499.514983 -321.64103 
L 499.516715 -318.893035 
L 499.526634 -316.145039 
L 499.535425 -313.397044 
L 499.543344 -310.649049 
L 499.561453 -307.901053 
L 499.599028 -305.153058 
L 499.670751 -302.405063 
L 499.78199 -299.657067 
L 499.930788 -296.909072 
L 500.126441 -294.161076 
L 500.406114 -291.413081 
L 500.865253 -288.665086 
L 501.518704 -285.91709 
L 502.377769 -283.169095 
L 503.649603 -280.421099 
L 505.685064 -277.673104 
L 508.945002 -274.925109 
L 513.971075 -272.177113 
L 521.846863 -269.429118 
L 533.903204 -266.681122 
L 548.563763 -263.933127 
L 558.557395 -261.185132 
L 556.004173 -258.437136 
L 543.483158 -255.689141 
L 529.687576 -252.941146 
L 519.130691 -250.19315 
L 512.147301 -247.445155 
L 507.765048 -244.697159 
L 505.015625 -241.949164 
L 503.237957 -239.201169 
L 502.111592 -236.453173 
L 501.324374 -233.705178 
L 500.724017 -230.957182 
L 500.31649 -228.209187 
L 500.04629 -225.461192 
L 499.857818 -222.713196 
L 499.73447 -219.965201 
L 499.654121 -217.217206 
L 499.59183 -214.46921 
L 499.55306 -211.721215 
L 499.543772 -208.973219 
L 499.541167 -206.225224 
L 499.532674 -203.477229 
L 499.525233 -200.729233 
L 499.51689 -197.981238 
L 499.507275 -195.233242 
L 499.501855 -192.485247 
L 499.50094 -189.737252 
L 499.502674 -186.989256 
L 499.504018 -184.241261 
L 499.502471 -181.493265 
L 499.500619 -178.74527 
L 499.500063 -175.997275 
L 499.500003 -173.249279 
L 499.5 -170.501284 
L 499.5 -167.753289 
L 499.5 -165.005293 
L 499.5 -162.257298 
L 499.5 -159.509302 
L 499.5 -156.761307 
L 499.5 -154.013312 
L 499.5 -151.265316 
L 499.5 -148.517321 
L 499.5 -145.769325 
L 499.5 -143.02133 
L 499.5 -140.273335 
L 499.5 -137.525339 
L 499.5 -134.777344 
L 499.5 -132.029348 
L 499.5 -129.281353 
L 499.5 -126.533358 
L 499.5 -123.785362 
L 499.5 -121.037367 
L 499.5 -118.289372 
L 499.5 -115.541376 
L 499.5 -112.793381 
L 499.5 -110.045385 
L 499.5 -107.29739 
L 499.5 -104.549395 
L 499.5 -101.801399 
L 499.5 -99.053404 
L 499.5 -96.305408 
L 499.5 -93.557413 
L 499.5 -90.809418 
L 499.500047 -88.061422 
L 499.50242 -85.313427 
L 499.550768 -82.565431 
L 499.933895 -79.817436 
L 501.010812 -77.069441 
L 501.643213 -74.321445 
L 500.738651 -71.57345 
L 499.79165 -68.825455 
z
" id="m06f9352411" style="stroke:#4d4d4d;stroke-width:1.5;"/>
    </defs>
    <g clip-path="url(#pb39b662819)">
     <use style="fill:#224fdf;stroke:#4d4d4d;stroke-width:1.5;" x="0" xlink:href="#m06f9352411" y="432"/>
    </g>
   </g>
   <g id="line2d_7">
    <path clip-path="url(#pb39b662819)" d="M 164.7 189.285726 
L 164.7 154.368573 
" style="fill:none;stroke:#4d4d4d;stroke-linecap:round;stroke-width:1.5;"/>
   </g>
   <g id="line2d_8">
    <path clip-path="url(#pb39b662819)" d="M 164.7 176.192025 
L 164.7 167.4623 
" style="fill:none;stroke:#4d4d4d;stroke-linecap:round;stroke-width:4.5;"/>
   </g>
   <g id="line2d_9">
    <path clip-path="url(#pb39b662819)" d="M 332.1 191.522725 
L 332.1 152.478747 
" style="fill:none;stroke:#4d4d4d;stroke-linecap:round;stroke-width:1.5;"/>
   </g>
   <g id="line2d_10">
    <path clip-path="url(#pb39b662819)" d="M 332.1 176.881186 
L 332.1 167.119472 
" style="fill:none;stroke:#4d4d4d;stroke-linecap:round;stroke-width:4.5;"/>
   </g>
   <g id="line2d_11">
    <path clip-path="url(#pb39b662819)" d="M 499.5 190.629972 
L 499.5 153.302625 
" style="fill:none;stroke:#4d4d4d;stroke-linecap:round;stroke-width:1.5;"/>
   </g>
   <g id="line2d_12">
    <path clip-path="url(#pb39b662819)" d="M 499.5 176.63774 
L 499.5 167.302919 
" style="fill:none;stroke:#4d4d4d;stroke-linecap:round;stroke-width:4.5;"/>
   </g>
   <g id="patch_3">
    <path d="M 81 378 
L 81 51.84 
" style="fill:none;stroke:#ffffff;stroke-linecap:square;stroke-linejoin:miter;stroke-width:0.8;"/>
   </g>
   <g id="patch_4">
    <path d="M 583.2 378 
L 583.2 51.84 
" style="fill:none;stroke:#ffffff;stroke-linecap:square;stroke-linejoin:miter;stroke-width:0.8;"/>
   </g>
   <g id="patch_5">
    <path d="M 81 378 
L 583.2 378 
" style="fill:none;stroke:#ffffff;stroke-linecap:square;stroke-linejoin:miter;stroke-width:0.8;"/>
   </g>
   <g id="patch_6">
    <path d="M 81 51.84 
L 583.2 51.84 
" style="fill:none;stroke:#ffffff;stroke-linecap:square;stroke-linejoin:miter;stroke-width:0.8;"/>
   </g>
   <g id="PathCollection_1">
    <defs>
     <path d="M 0 1.5 
C 0.397805 1.5 0.77937 1.341951 1.06066 1.06066 
C 1.341951 0.77937 1.5 0.397805 1.5 0 
C 1.5 -0.397805 1.341951 -0.77937 1.06066 -1.06066 
C 0.77937 -1.341951 0.397805 -1.5 0 -1.5 
C -0.397805 -1.5 -0.77937 -1.341951 -1.06066 -1.06066 
C -1.341951 -0.77937 -1.5 -0.397805 -1.5 0 
C -1.5 0.397805 -1.341951 0.77937 -1.06066 1.06066 
C -0.77937 1.341951 -0.397805 1.5 0 1.5 
z
" id="md50c8b05e1" style="stroke:#4d4d4d;"/>
    </defs>
    <g clip-path="url(#pb39b662819)">
     <use style="fill:#ffffff;stroke:#4d4d4d;" x="164.7" xlink:href="#md50c8b05e1" y="171.60348"/>
    </g>
   </g>
   <g id="PathCollection_2">
    <g clip-path="url(#pb39b662819)">
     <use style="fill:#ffffff;stroke:#4d4d4d;" x="332.1" xlink:href="#md50c8b05e1" y="171.842247"/>
    </g>
   </g>
   <g id="PathCollection_3">
    <g clip-path="url(#pb39b662819)">
     <use style="fill:#ffffff;stroke:#4d4d4d;" x="499.5" xlink:href="#md50c8b05e1" y="171.779034"/>
    </g>
   </g>
  </g>
 </g>
 <defs>
  <clipPath id="pb39b662819">
   <rect height="326.16" width="502.2" x="81" y="51.84"/>
  </clipPath>
 </defs>
</svg>
